G04 Layer: BottomLayer*
G04 EasyEDA v6.4.25, 2022-01-30T06:19:27+11:00*
G04 a67cddfb3fce44daa9051d46cbbcc19f,10*
G04 Gerber Generator version 0.2*
G04 Scale: 100 percent, Rotated: No, Reflected: No *
G04 Dimensions in millimeters *
G04 leading zeros omitted , absolute positions ,4 integer and 5 decimal *
%FSLAX45Y45*%
%MOMM*%

%ADD11C,5.0000*%
%ADD13C,2.0000*%
%ADD14C,4.0000*%
%ADD15C,0.6096*%
%ADD22C,1.6500*%

%LPD*%
G36*
X500227Y25908D02*
G01*
X469900Y26873D01*
X440283Y29718D01*
X410870Y34391D01*
X381812Y40894D01*
X353212Y49225D01*
X325170Y59334D01*
X297840Y71170D01*
X271322Y84734D01*
X245719Y99923D01*
X221081Y116636D01*
X197561Y134924D01*
X175260Y154635D01*
X154178Y175717D01*
X134518Y198069D01*
X116281Y221589D01*
X99568Y246227D01*
X84429Y271881D01*
X70916Y298450D01*
X59080Y325780D01*
X49022Y353822D01*
X40741Y382422D01*
X34290Y411480D01*
X29616Y440893D01*
X26822Y470560D01*
X25908Y500532D01*
X25908Y7499451D01*
X26873Y7530084D01*
X29718Y7559751D01*
X34391Y7589164D01*
X40894Y7618222D01*
X49225Y7646822D01*
X59334Y7674813D01*
X71170Y7702143D01*
X84734Y7728661D01*
X99923Y7754264D01*
X116636Y7778902D01*
X134924Y7802422D01*
X154635Y7824774D01*
X175717Y7845806D01*
X198069Y7865465D01*
X221589Y7883702D01*
X246227Y7900416D01*
X271881Y7915605D01*
X298450Y7929067D01*
X325780Y7940903D01*
X353822Y7950962D01*
X382422Y7959242D01*
X411480Y7965744D01*
X440893Y7970367D01*
X470560Y7973161D01*
X500532Y7974075D01*
X7499451Y7974075D01*
X7530084Y7973110D01*
X7559751Y7970266D01*
X7589164Y7965592D01*
X7618222Y7959090D01*
X7646822Y7950758D01*
X7674813Y7940649D01*
X7702143Y7928813D01*
X7728661Y7915300D01*
X7754264Y7900111D01*
X7778902Y7883347D01*
X7802422Y7865059D01*
X7824774Y7845348D01*
X7845806Y7824266D01*
X7865465Y7801914D01*
X7883702Y7778394D01*
X7900416Y7753756D01*
X7915605Y7728102D01*
X7929067Y7701584D01*
X7940903Y7674203D01*
X7950962Y7646212D01*
X7959242Y7617612D01*
X7965744Y7588503D01*
X7970367Y7559090D01*
X7973161Y7529423D01*
X7974075Y7499451D01*
X7974075Y500532D01*
X7973110Y469900D01*
X7970266Y440283D01*
X7965592Y410870D01*
X7959090Y381812D01*
X7950758Y353212D01*
X7940649Y325170D01*
X7928813Y297840D01*
X7915300Y271322D01*
X7900111Y245719D01*
X7883347Y221081D01*
X7865059Y197561D01*
X7845348Y175260D01*
X7824266Y154178D01*
X7801914Y134518D01*
X7778394Y116281D01*
X7753756Y99568D01*
X7728102Y84429D01*
X7701584Y70916D01*
X7674203Y59080D01*
X7646212Y49022D01*
X7617612Y40741D01*
X7588503Y34290D01*
X7559090Y29616D01*
X7529423Y26822D01*
X7499451Y25908D01*
G37*

%LPC*%
G36*
X500583Y474472D02*
G01*
X7499451Y474472D01*
X7505649Y475183D01*
X7511034Y477062D01*
X7515859Y480110D01*
X7519873Y484124D01*
X7522921Y488950D01*
X7524800Y494334D01*
X7525512Y500583D01*
X7525512Y7499451D01*
X7524800Y7505649D01*
X7522921Y7511034D01*
X7519873Y7515859D01*
X7515859Y7519873D01*
X7511034Y7522921D01*
X7505649Y7524800D01*
X7499451Y7525512D01*
X500583Y7525512D01*
X494334Y7524800D01*
X488950Y7522921D01*
X484124Y7519873D01*
X480110Y7515859D01*
X477062Y7511034D01*
X475183Y7505649D01*
X474522Y7499451D01*
X474522Y500583D01*
X475183Y494334D01*
X477062Y488950D01*
X480110Y484124D01*
X484124Y480110D01*
X488950Y477062D01*
X494334Y475183D01*
G37*

%LPD*%
G36*
X510184Y499973D02*
G01*
X506272Y500786D01*
X502970Y502970D01*
X500786Y506272D01*
X500024Y510133D01*
X500024Y964793D01*
X500786Y968654D01*
X502970Y971956D01*
X506272Y974191D01*
X510184Y974953D01*
X999794Y974953D01*
X1022756Y975868D01*
X1045362Y978712D01*
X1067612Y983386D01*
X1089456Y989888D01*
X1110640Y998169D01*
X1131112Y1008176D01*
X1150670Y1019810D01*
X1169212Y1033018D01*
X1186586Y1047750D01*
X1202690Y1063853D01*
X1217422Y1081227D01*
X1230630Y1099769D01*
X1242263Y1119327D01*
X1252270Y1139799D01*
X1260551Y1160983D01*
X1267053Y1182827D01*
X1271727Y1205077D01*
X1274572Y1227683D01*
X1275486Y1250442D01*
X1274572Y1273200D01*
X1271727Y1295806D01*
X1267053Y1318056D01*
X1260551Y1339900D01*
X1252270Y1361084D01*
X1242263Y1381556D01*
X1230630Y1401114D01*
X1217422Y1419656D01*
X1202690Y1437030D01*
X1186586Y1453134D01*
X1169212Y1467866D01*
X1150670Y1481074D01*
X1131112Y1492707D01*
X1110640Y1502714D01*
X1089456Y1510995D01*
X1067612Y1517497D01*
X1045362Y1522171D01*
X1022756Y1525016D01*
X999794Y1525930D01*
X510184Y1525930D01*
X506272Y1526692D01*
X502970Y1528927D01*
X500786Y1532229D01*
X500024Y1536090D01*
X500024Y2464765D01*
X500786Y2468676D01*
X502970Y2471978D01*
X506272Y2474163D01*
X510184Y2474925D01*
X999794Y2474925D01*
X1022756Y2475890D01*
X1045362Y2478684D01*
X1067612Y2483358D01*
X1089456Y2489860D01*
X1110640Y2498140D01*
X1131112Y2508148D01*
X1150670Y2519781D01*
X1169212Y2533040D01*
X1186586Y2547772D01*
X1202690Y2563876D01*
X1217422Y2581249D01*
X1230630Y2599740D01*
X1242263Y2619298D01*
X1252270Y2639771D01*
X1260551Y2661005D01*
X1267053Y2682798D01*
X1271727Y2705100D01*
X1274572Y2727706D01*
X1275486Y2750413D01*
X1274572Y2773172D01*
X1271727Y2795778D01*
X1267053Y2818079D01*
X1260551Y2839872D01*
X1252270Y2861106D01*
X1242263Y2881579D01*
X1230630Y2901137D01*
X1217422Y2919628D01*
X1202690Y2937002D01*
X1186586Y2953105D01*
X1169212Y2967837D01*
X1150670Y2981096D01*
X1131112Y2992729D01*
X1110640Y3002737D01*
X1089456Y3011017D01*
X1067612Y3017520D01*
X1045362Y3022193D01*
X1022756Y3024987D01*
X999794Y3025952D01*
X510184Y3025952D01*
X506272Y3026714D01*
X502970Y3028899D01*
X500786Y3032201D01*
X500024Y3036112D01*
X500024Y3964787D01*
X500786Y3968648D01*
X502970Y3971950D01*
X506272Y3974185D01*
X510184Y3974947D01*
X999794Y3974947D01*
X1022756Y3975862D01*
X1045362Y3978706D01*
X1067612Y3983380D01*
X1089456Y3989882D01*
X1110640Y3998163D01*
X1131112Y4008170D01*
X1150670Y4019804D01*
X1169212Y4033012D01*
X1186586Y4047744D01*
X1202690Y4063847D01*
X1217422Y4081221D01*
X1230630Y4099763D01*
X1242263Y4119321D01*
X1252270Y4139793D01*
X1260551Y4160977D01*
X1267053Y4182821D01*
X1271727Y4205071D01*
X1274572Y4227677D01*
X1275486Y4250436D01*
X1274572Y4273194D01*
X1271727Y4295800D01*
X1267053Y4318050D01*
X1260551Y4339894D01*
X1252270Y4361078D01*
X1242263Y4381550D01*
X1230630Y4401108D01*
X1217422Y4419650D01*
X1202690Y4437024D01*
X1186586Y4453128D01*
X1169212Y4467860D01*
X1150670Y4481068D01*
X1131112Y4492701D01*
X1110640Y4502708D01*
X1089456Y4510989D01*
X1067612Y4517491D01*
X1045362Y4522165D01*
X1022756Y4525010D01*
X999794Y4525924D01*
X510184Y4525924D01*
X506272Y4526686D01*
X502970Y4528921D01*
X500786Y4532223D01*
X500024Y4536084D01*
X500024Y5464759D01*
X500786Y5468670D01*
X502970Y5471972D01*
X506272Y5474157D01*
X510184Y5474919D01*
X999794Y5474919D01*
X1022756Y5475884D01*
X1045362Y5478678D01*
X1067612Y5483352D01*
X1089456Y5489854D01*
X1110640Y5498134D01*
X1131112Y5508142D01*
X1150670Y5519775D01*
X1169212Y5533034D01*
X1186586Y5547766D01*
X1202690Y5563870D01*
X1217422Y5581243D01*
X1230630Y5599734D01*
X1242263Y5619292D01*
X1252270Y5639765D01*
X1260551Y5660999D01*
X1267053Y5682792D01*
X1271727Y5705094D01*
X1274572Y5727700D01*
X1275486Y5750407D01*
X1274572Y5773166D01*
X1271727Y5795772D01*
X1267053Y5818073D01*
X1260551Y5839866D01*
X1252270Y5861100D01*
X1242263Y5881573D01*
X1230630Y5901131D01*
X1217422Y5919622D01*
X1202690Y5936996D01*
X1186586Y5953099D01*
X1169212Y5967831D01*
X1150670Y5981090D01*
X1131112Y5992723D01*
X1110640Y6002731D01*
X1089456Y6011011D01*
X1067612Y6017514D01*
X1045362Y6022187D01*
X1022756Y6024981D01*
X999794Y6025946D01*
X510184Y6025946D01*
X506272Y6026708D01*
X502970Y6028893D01*
X500786Y6032195D01*
X500024Y6036106D01*
X500024Y6964781D01*
X500786Y6968693D01*
X502970Y6971995D01*
X506272Y6974179D01*
X510184Y6974941D01*
X999794Y6974941D01*
X1022756Y6975906D01*
X1045362Y6978700D01*
X1067612Y6983374D01*
X1089456Y6989876D01*
X1110640Y6998157D01*
X1131112Y7008164D01*
X1150670Y7019798D01*
X1169212Y7033056D01*
X1186586Y7047788D01*
X1202690Y7063892D01*
X1217422Y7081266D01*
X1230630Y7099757D01*
X1242263Y7119315D01*
X1252270Y7139787D01*
X1260551Y7161022D01*
X1267053Y7182815D01*
X1271727Y7205116D01*
X1274572Y7227722D01*
X1275486Y7250684D01*
X1275486Y7489850D01*
X1276248Y7493711D01*
X1278483Y7497013D01*
X1281785Y7499248D01*
X1285646Y7500010D01*
X7489850Y7500010D01*
X7493711Y7499248D01*
X7497013Y7497013D01*
X7499248Y7493711D01*
X7500010Y7489850D01*
X7500010Y7035190D01*
X7499248Y7031329D01*
X7497013Y7028027D01*
X7493711Y7025792D01*
X7489850Y7025030D01*
X7000240Y7025030D01*
X6977278Y7024116D01*
X6954672Y7021271D01*
X6932371Y7016597D01*
X6910578Y7010095D01*
X6889343Y7001814D01*
X6868871Y6991807D01*
X6849313Y6980174D01*
X6830822Y6966966D01*
X6813448Y6952234D01*
X6797344Y6936130D01*
X6782612Y6918756D01*
X6769353Y6900214D01*
X6757720Y6880656D01*
X6747713Y6860184D01*
X6739432Y6839000D01*
X6732930Y6817156D01*
X6728256Y6794906D01*
X6725462Y6772300D01*
X6724497Y6749542D01*
X6725462Y6726783D01*
X6728256Y6704177D01*
X6732930Y6681927D01*
X6739432Y6660083D01*
X6747713Y6638899D01*
X6757720Y6618427D01*
X6769353Y6598869D01*
X6782612Y6580327D01*
X6797344Y6562953D01*
X6813448Y6546850D01*
X6830822Y6532118D01*
X6849313Y6518909D01*
X6868871Y6507276D01*
X6889343Y6497269D01*
X6910578Y6488988D01*
X6932371Y6482486D01*
X6954672Y6477812D01*
X6977278Y6474968D01*
X7000240Y6474053D01*
X7489850Y6474053D01*
X7493711Y6473291D01*
X7497013Y6471056D01*
X7499248Y6467754D01*
X7500010Y6463893D01*
X7500010Y5535218D01*
X7499248Y5531307D01*
X7497013Y5528005D01*
X7493711Y5525820D01*
X7489850Y5525058D01*
X7000240Y5525058D01*
X6977278Y5524093D01*
X6954672Y5521299D01*
X6932371Y5516626D01*
X6910578Y5510123D01*
X6889343Y5501843D01*
X6868871Y5491835D01*
X6849313Y5480202D01*
X6830822Y5466943D01*
X6813448Y5452211D01*
X6797344Y5436108D01*
X6782612Y5418734D01*
X6769353Y5400243D01*
X6757720Y5380685D01*
X6747713Y5360212D01*
X6739432Y5338978D01*
X6732930Y5317185D01*
X6728256Y5294884D01*
X6725462Y5272278D01*
X6724497Y5249519D01*
X6725462Y5226812D01*
X6728256Y5204206D01*
X6732930Y5181904D01*
X6739432Y5160111D01*
X6747713Y5138877D01*
X6757720Y5118404D01*
X6769353Y5098846D01*
X6782612Y5080355D01*
X6797344Y5062982D01*
X6813448Y5046878D01*
X6830822Y5032146D01*
X6849313Y5018887D01*
X6868871Y5007254D01*
X6889343Y4997246D01*
X6910578Y4988966D01*
X6932371Y4982464D01*
X6954672Y4977790D01*
X6977278Y4974996D01*
X7000240Y4974031D01*
X7489850Y4974031D01*
X7493711Y4973269D01*
X7497013Y4971084D01*
X7499248Y4967782D01*
X7500010Y4963871D01*
X7500010Y4035196D01*
X7499248Y4031335D01*
X7497013Y4028033D01*
X7493711Y4025798D01*
X7489850Y4025036D01*
X7000240Y4025036D01*
X6977278Y4024122D01*
X6954672Y4021277D01*
X6932371Y4016603D01*
X6910578Y4010101D01*
X6889343Y4001820D01*
X6868871Y3991813D01*
X6849313Y3980179D01*
X6830822Y3966972D01*
X6813448Y3952240D01*
X6797344Y3936136D01*
X6782612Y3918762D01*
X6769353Y3900220D01*
X6757720Y3880662D01*
X6747713Y3860190D01*
X6739432Y3839006D01*
X6732930Y3817162D01*
X6728256Y3794912D01*
X6725462Y3772306D01*
X6724497Y3749548D01*
X6725462Y3726789D01*
X6728256Y3704183D01*
X6732930Y3681933D01*
X6739432Y3660089D01*
X6747713Y3638905D01*
X6757720Y3618433D01*
X6769353Y3598875D01*
X6782612Y3580333D01*
X6797344Y3562959D01*
X6813448Y3546856D01*
X6830822Y3532124D01*
X6849313Y3518915D01*
X6868871Y3507282D01*
X6889343Y3497275D01*
X6910578Y3488994D01*
X6932371Y3482492D01*
X6954672Y3477818D01*
X6977278Y3474974D01*
X7000240Y3474059D01*
X7489850Y3474059D01*
X7493711Y3473297D01*
X7497013Y3471062D01*
X7499248Y3467760D01*
X7500010Y3463899D01*
X7500010Y2535224D01*
X7499248Y2531313D01*
X7497013Y2528011D01*
X7493711Y2525826D01*
X7489850Y2525064D01*
X7000240Y2525064D01*
X6977278Y2524099D01*
X6954672Y2521305D01*
X6932371Y2516632D01*
X6910578Y2510129D01*
X6889343Y2501849D01*
X6868871Y2491841D01*
X6849313Y2480208D01*
X6830822Y2466949D01*
X6813448Y2452217D01*
X6797344Y2436114D01*
X6782612Y2418740D01*
X6769353Y2400249D01*
X6757720Y2380691D01*
X6747713Y2360218D01*
X6739432Y2338984D01*
X6732930Y2317191D01*
X6728256Y2294890D01*
X6725462Y2272284D01*
X6724497Y2249525D01*
X6725462Y2226818D01*
X6728256Y2204212D01*
X6732930Y2181910D01*
X6739432Y2160117D01*
X6747713Y2138883D01*
X6757720Y2118410D01*
X6769353Y2098852D01*
X6782612Y2080361D01*
X6797344Y2062988D01*
X6813448Y2046884D01*
X6830822Y2032152D01*
X6849313Y2018893D01*
X6868871Y2007260D01*
X6889343Y1997252D01*
X6910578Y1988972D01*
X6932371Y1982470D01*
X6954672Y1977796D01*
X6977278Y1975002D01*
X7000240Y1974037D01*
X7489850Y1974037D01*
X7493711Y1973275D01*
X7497013Y1971090D01*
X7499248Y1967788D01*
X7500010Y1963877D01*
X7500010Y1035202D01*
X7499248Y1031341D01*
X7497013Y1028039D01*
X7493711Y1025804D01*
X7489850Y1025042D01*
X7000240Y1025042D01*
X6977278Y1024128D01*
X6954672Y1021283D01*
X6932371Y1016609D01*
X6910578Y1010107D01*
X6889343Y1001826D01*
X6868871Y991819D01*
X6849313Y980186D01*
X6830822Y966978D01*
X6813448Y952246D01*
X6797344Y936142D01*
X6782612Y918768D01*
X6769353Y900226D01*
X6757720Y880668D01*
X6747713Y860196D01*
X6739432Y839012D01*
X6732930Y817168D01*
X6728256Y794918D01*
X6725462Y772312D01*
X6724497Y749350D01*
X6724497Y510133D01*
X6723735Y506272D01*
X6721551Y502970D01*
X6718249Y500786D01*
X6714337Y499973D01*
X4285640Y499973D01*
X4281779Y500786D01*
X4278477Y502970D01*
X4276242Y506272D01*
X4275480Y510133D01*
X4275480Y902614D01*
X4276242Y906475D01*
X4278426Y909777D01*
X4281678Y911961D01*
X4285538Y912774D01*
X4289399Y912063D01*
X4292701Y909929D01*
X4294936Y906729D01*
X4298137Y899464D01*
X4308297Y881278D01*
X4320032Y864108D01*
X4333341Y848106D01*
X4348073Y833374D01*
X4364126Y820064D01*
X4381296Y808278D01*
X4399483Y798169D01*
X4418533Y789736D01*
X4438294Y783132D01*
X4458563Y778357D01*
X4479188Y775462D01*
X4500016Y774496D01*
X4520793Y775462D01*
X4541418Y778357D01*
X4561687Y783132D01*
X4581448Y789736D01*
X4600498Y798169D01*
X4618685Y808278D01*
X4635855Y820064D01*
X4651908Y833374D01*
X4666640Y848106D01*
X4679950Y864108D01*
X4691684Y881278D01*
X4701844Y899464D01*
X4710277Y918565D01*
X4716881Y938276D01*
X4721656Y958545D01*
X4724501Y979169D01*
X4725517Y1000252D01*
X4725517Y2199792D01*
X4725263Y2210409D01*
X4724501Y2220823D01*
X4723333Y2231136D01*
X4721656Y2241448D01*
X4719472Y2251659D01*
X4716881Y2261717D01*
X4713782Y2271674D01*
X4710277Y2281478D01*
X4706264Y2291080D01*
X4701844Y2300528D01*
X4696968Y2309723D01*
X4691684Y2318715D01*
X4685995Y2327452D01*
X4679950Y2335885D01*
X4673447Y2344064D01*
X4666640Y2351938D01*
X4659274Y2359609D01*
X4228490Y2790444D01*
X4226255Y2793746D01*
X4225493Y2797606D01*
X4225493Y4664405D01*
X4226255Y4668266D01*
X4228490Y4671568D01*
X4667300Y5110378D01*
X4681474Y5125923D01*
X4694021Y5142534D01*
X4704994Y5160264D01*
X4714290Y5178907D01*
X4721809Y5198313D01*
X4727498Y5218379D01*
X4731308Y5238851D01*
X4733239Y5259578D01*
X4733239Y5280406D01*
X4731308Y5301132D01*
X4727498Y5321604D01*
X4721809Y5341670D01*
X4714290Y5361076D01*
X4704994Y5379720D01*
X4694021Y5397449D01*
X4681474Y5414060D01*
X4667453Y5429453D01*
X4652060Y5443474D01*
X4635449Y5456021D01*
X4617720Y5466994D01*
X4599076Y5476290D01*
X4579670Y5483809D01*
X4559604Y5489498D01*
X4539132Y5493308D01*
X4518406Y5495239D01*
X4497578Y5495239D01*
X4476851Y5493308D01*
X4456379Y5489498D01*
X4436313Y5483809D01*
X4416907Y5476290D01*
X4398264Y5466994D01*
X4380534Y5456021D01*
X4363923Y5443474D01*
X4348378Y5429300D01*
X3840734Y4921605D01*
X3833368Y4913934D01*
X3826510Y4906060D01*
X3820058Y4897882D01*
X3813962Y4889449D01*
X3808272Y4880711D01*
X3802989Y4871720D01*
X3798163Y4862525D01*
X3793744Y4853076D01*
X3789730Y4843475D01*
X3786174Y4833670D01*
X3783126Y4823714D01*
X3780485Y4813604D01*
X3778351Y4803444D01*
X3776675Y4793132D01*
X3775456Y4782820D01*
X3774744Y4772406D01*
X3774490Y4761788D01*
X3774490Y2700223D01*
X3774744Y2689606D01*
X3775456Y2679192D01*
X3776675Y2668828D01*
X3778351Y2658567D01*
X3780485Y2648356D01*
X3783126Y2638298D01*
X3786174Y2628341D01*
X3789730Y2618536D01*
X3793744Y2608935D01*
X3798163Y2599486D01*
X3802989Y2590292D01*
X3808272Y2581300D01*
X3813962Y2572562D01*
X3820058Y2564130D01*
X3826510Y2555951D01*
X3833368Y2548077D01*
X3840734Y2540355D01*
X4044645Y2336444D01*
X4046829Y2333193D01*
X4047591Y2329281D01*
X4047591Y2269591D01*
X4107281Y2269591D01*
X4111193Y2268829D01*
X4114444Y2266645D01*
X4271518Y2109571D01*
X4273702Y2106269D01*
X4274515Y2102408D01*
X4274515Y1107744D01*
X4273702Y1103833D01*
X4271467Y1100531D01*
X4268114Y1098296D01*
X4264202Y1097584D01*
X4260291Y1098397D01*
X4257040Y1100683D01*
X4254855Y1104036D01*
X4252264Y1110640D01*
X4242257Y1131112D01*
X4230624Y1150670D01*
X4217416Y1169212D01*
X4202684Y1186586D01*
X4186580Y1202690D01*
X4169206Y1217422D01*
X4150664Y1230630D01*
X4131106Y1242263D01*
X4110634Y1252270D01*
X4089450Y1260551D01*
X4067606Y1267053D01*
X4045356Y1271727D01*
X4022750Y1274572D01*
X3999992Y1275486D01*
X3977233Y1274572D01*
X3954627Y1271727D01*
X3932377Y1267053D01*
X3910533Y1260551D01*
X3889349Y1252270D01*
X3868877Y1242263D01*
X3849319Y1230630D01*
X3830777Y1217422D01*
X3813403Y1202690D01*
X3797300Y1186586D01*
X3782568Y1169212D01*
X3769360Y1150670D01*
X3757726Y1131112D01*
X3747719Y1110640D01*
X3739438Y1089456D01*
X3732936Y1067612D01*
X3728262Y1045362D01*
X3725418Y1022756D01*
X3724503Y999794D01*
X3724503Y510133D01*
X3723741Y506272D01*
X3721506Y502970D01*
X3718204Y500786D01*
X3714343Y499973D01*
G37*

%LPC*%
G36*
X999998Y6624066D02*
G01*
X1015136Y6624980D01*
X1030020Y6627723D01*
X1044498Y6632244D01*
X1058316Y6638442D01*
X1071270Y6646265D01*
X1083208Y6655612D01*
X1093927Y6666331D01*
X1103274Y6678269D01*
X1111097Y6691223D01*
X1117346Y6705041D01*
X1121816Y6719519D01*
X1124559Y6734454D01*
X1125474Y6749542D01*
X1124559Y6764680D01*
X1121816Y6779564D01*
X1117346Y6794042D01*
X1111097Y6807860D01*
X1103274Y6820814D01*
X1093927Y6832752D01*
X1083208Y6843471D01*
X1071270Y6852818D01*
X1058316Y6860641D01*
X1044498Y6866890D01*
X1030020Y6871411D01*
X1015136Y6874103D01*
X999998Y6875018D01*
X984859Y6874103D01*
X969975Y6871411D01*
X955497Y6866890D01*
X941679Y6860641D01*
X928725Y6852818D01*
X916787Y6843471D01*
X906068Y6832752D01*
X896721Y6820814D01*
X888898Y6807860D01*
X882650Y6794042D01*
X878179Y6779564D01*
X875436Y6764680D01*
X874521Y6749542D01*
X875436Y6734454D01*
X878179Y6719519D01*
X882650Y6705041D01*
X888898Y6691223D01*
X896721Y6678269D01*
X906068Y6666331D01*
X916787Y6655612D01*
X928725Y6646265D01*
X941679Y6638442D01*
X955497Y6632244D01*
X969975Y6627723D01*
X984859Y6624980D01*
G37*
G36*
X999998Y624078D02*
G01*
X1015136Y624992D01*
X1030020Y627735D01*
X1044498Y632206D01*
X1058316Y638454D01*
X1071270Y646277D01*
X1083208Y655624D01*
X1093927Y666343D01*
X1103274Y678281D01*
X1111097Y691235D01*
X1117346Y705053D01*
X1121816Y719531D01*
X1124559Y734415D01*
X1125474Y749554D01*
X1124559Y764692D01*
X1121816Y779576D01*
X1117346Y794054D01*
X1111097Y807872D01*
X1103274Y820826D01*
X1093927Y832764D01*
X1083208Y843483D01*
X1071270Y852830D01*
X1058316Y860653D01*
X1044498Y866902D01*
X1030020Y871372D01*
X1015136Y874115D01*
X999998Y875030D01*
X984859Y874115D01*
X969975Y871372D01*
X955497Y866902D01*
X941679Y860653D01*
X928725Y852830D01*
X916787Y843483D01*
X906068Y832764D01*
X896721Y820826D01*
X888898Y807872D01*
X882650Y794054D01*
X878179Y779576D01*
X875436Y764692D01*
X874521Y749554D01*
X875436Y734415D01*
X878179Y719531D01*
X882650Y705053D01*
X888898Y691235D01*
X896721Y678281D01*
X906068Y666343D01*
X916787Y655624D01*
X928725Y646277D01*
X941679Y638454D01*
X955497Y632206D01*
X969975Y627735D01*
X984859Y624992D01*
G37*
G36*
X6999986Y5624982D02*
G01*
X7015124Y5625896D01*
X7030008Y5628589D01*
X7044486Y5633110D01*
X7058304Y5639358D01*
X7071258Y5647182D01*
X7083196Y5656529D01*
X7093915Y5667248D01*
X7103262Y5679186D01*
X7111085Y5692140D01*
X7117334Y5705957D01*
X7121855Y5720435D01*
X7124547Y5735320D01*
X7125462Y5750458D01*
X7124547Y5765546D01*
X7121855Y5780481D01*
X7117334Y5794959D01*
X7111085Y5808776D01*
X7103262Y5821730D01*
X7093915Y5833668D01*
X7083196Y5844387D01*
X7071258Y5853734D01*
X7058304Y5861558D01*
X7044486Y5867755D01*
X7030008Y5872276D01*
X7015124Y5875020D01*
X6999986Y5875934D01*
X6984898Y5875020D01*
X6969963Y5872276D01*
X6955485Y5867755D01*
X6941667Y5861558D01*
X6928713Y5853734D01*
X6916775Y5844387D01*
X6906056Y5833668D01*
X6896709Y5821730D01*
X6888886Y5808776D01*
X6882688Y5794959D01*
X6878167Y5780481D01*
X6875424Y5765546D01*
X6874509Y5750458D01*
X6875424Y5735320D01*
X6878167Y5720435D01*
X6882688Y5705957D01*
X6888886Y5692140D01*
X6896709Y5679186D01*
X6906056Y5667248D01*
X6916775Y5656529D01*
X6928713Y5647182D01*
X6941667Y5639358D01*
X6955485Y5633110D01*
X6969963Y5628589D01*
X6984898Y5625896D01*
G37*
G36*
X3443630Y887984D02*
G01*
X3443630Y943660D01*
X3388004Y943660D01*
X3388868Y941679D01*
X3396742Y928725D01*
X3406089Y916787D01*
X3416808Y906068D01*
X3428695Y896721D01*
X3441700Y888898D01*
G37*
G36*
X3556355Y887984D02*
G01*
X3558336Y888898D01*
X3571290Y896721D01*
X3583228Y906068D01*
X3593947Y916787D01*
X3603294Y928725D01*
X3611118Y941679D01*
X3611981Y943660D01*
X3556355Y943660D01*
G37*
G36*
X3388004Y1056335D02*
G01*
X3443630Y1056335D01*
X3443630Y1112012D01*
X3441700Y1111097D01*
X3428695Y1103274D01*
X3416808Y1093927D01*
X3406089Y1083208D01*
X3396742Y1071270D01*
X3388868Y1058316D01*
G37*
G36*
X3556355Y1056335D02*
G01*
X3611981Y1056335D01*
X3611118Y1058316D01*
X3603294Y1071270D01*
X3593947Y1083208D01*
X3583228Y1093927D01*
X3571290Y1103274D01*
X3558336Y1111097D01*
X3556355Y1112012D01*
G37*
G36*
X3141319Y5571591D02*
G01*
X3190392Y5571591D01*
X3190392Y5620664D01*
X3183991Y5617514D01*
X3172256Y5609640D01*
X3161639Y5600344D01*
X3152343Y5589727D01*
X3144469Y5577992D01*
G37*
G36*
X6999986Y1124966D02*
G01*
X7015124Y1125880D01*
X7030008Y1128623D01*
X7044486Y1133094D01*
X7058304Y1139342D01*
X7071258Y1147165D01*
X7083196Y1156512D01*
X7093915Y1167231D01*
X7103262Y1179169D01*
X7111085Y1192123D01*
X7117334Y1205941D01*
X7121855Y1220419D01*
X7124547Y1235303D01*
X7125462Y1250442D01*
X7124547Y1265580D01*
X7121855Y1280464D01*
X7117334Y1294942D01*
X7111085Y1308760D01*
X7103262Y1321714D01*
X7093915Y1333652D01*
X7083196Y1344371D01*
X7071258Y1353718D01*
X7058304Y1361541D01*
X7044486Y1367790D01*
X7030008Y1372260D01*
X7015124Y1375003D01*
X6999986Y1375918D01*
X6984898Y1375003D01*
X6969963Y1372260D01*
X6955485Y1367790D01*
X6941667Y1361541D01*
X6928713Y1353718D01*
X6916775Y1344371D01*
X6906056Y1333652D01*
X6896709Y1321714D01*
X6888886Y1308760D01*
X6882688Y1294942D01*
X6878167Y1280464D01*
X6875424Y1265580D01*
X6874509Y1250442D01*
X6875424Y1235303D01*
X6878167Y1220419D01*
X6882688Y1205941D01*
X6888886Y1192123D01*
X6896709Y1179169D01*
X6906056Y1167231D01*
X6916775Y1156512D01*
X6928713Y1147165D01*
X6941667Y1139342D01*
X6955485Y1133094D01*
X6969963Y1128623D01*
X6984898Y1125880D01*
G37*
G36*
X3745992Y2114042D02*
G01*
X3760114Y2114956D01*
X3773932Y2117699D01*
X3787343Y2122220D01*
X3799992Y2128469D01*
X3811727Y2136343D01*
X3822344Y2145639D01*
X3831640Y2156256D01*
X3839514Y2167991D01*
X3845763Y2180691D01*
X3850284Y2194052D01*
X3853078Y2207920D01*
X3853992Y2221992D01*
X3853078Y2236114D01*
X3850284Y2249932D01*
X3845763Y2263343D01*
X3839514Y2275992D01*
X3831640Y2287727D01*
X3822344Y2298344D01*
X3811727Y2307640D01*
X3799992Y2315514D01*
X3787343Y2321763D01*
X3773932Y2326284D01*
X3760114Y2329078D01*
X3745992Y2329992D01*
X3731920Y2329078D01*
X3718051Y2326284D01*
X3704691Y2321763D01*
X3691991Y2315514D01*
X3680256Y2307640D01*
X3669639Y2298344D01*
X3660343Y2287727D01*
X3652469Y2275992D01*
X3646220Y2263343D01*
X3641699Y2249932D01*
X3638956Y2236114D01*
X3638042Y2221992D01*
X3638956Y2207920D01*
X3641699Y2194052D01*
X3646220Y2180691D01*
X3652469Y2167991D01*
X3660343Y2156256D01*
X3669639Y2145639D01*
X3680256Y2136343D01*
X3691991Y2128469D01*
X3704691Y2122220D01*
X3718051Y2117699D01*
X3731920Y2114956D01*
G37*
G36*
X3237992Y2114042D02*
G01*
X3252114Y2114956D01*
X3265932Y2117699D01*
X3279343Y2122220D01*
X3291992Y2128469D01*
X3303727Y2136343D01*
X3314344Y2145639D01*
X3323640Y2156256D01*
X3331514Y2167991D01*
X3337763Y2180691D01*
X3342284Y2194052D01*
X3345078Y2207920D01*
X3345992Y2221992D01*
X3345078Y2236114D01*
X3342284Y2249932D01*
X3337763Y2263343D01*
X3331514Y2275992D01*
X3323640Y2287727D01*
X3314344Y2298344D01*
X3303727Y2307640D01*
X3291992Y2315514D01*
X3279343Y2321763D01*
X3265932Y2326284D01*
X3252114Y2329078D01*
X3237992Y2329992D01*
X3223920Y2329078D01*
X3210052Y2326284D01*
X3196691Y2321763D01*
X3183991Y2315514D01*
X3172256Y2307640D01*
X3161639Y2298344D01*
X3152343Y2287727D01*
X3144469Y2275992D01*
X3138220Y2263343D01*
X3133699Y2249932D01*
X3130956Y2236114D01*
X3130042Y2221992D01*
X3130956Y2207920D01*
X3133699Y2194052D01*
X3138220Y2180691D01*
X3144469Y2167991D01*
X3152343Y2156256D01*
X3161639Y2145639D01*
X3172256Y2136343D01*
X3183991Y2128469D01*
X3196691Y2122220D01*
X3210052Y2117699D01*
X3223920Y2114956D01*
G37*
G36*
X999998Y2124049D02*
G01*
X1015136Y2124964D01*
X1030020Y2127707D01*
X1044498Y2132228D01*
X1058316Y2138426D01*
X1071270Y2146300D01*
X1083208Y2155647D01*
X1093927Y2166366D01*
X1103274Y2178253D01*
X1111097Y2191258D01*
X1117346Y2205075D01*
X1121816Y2219502D01*
X1124559Y2234438D01*
X1125474Y2249576D01*
X1124559Y2264664D01*
X1121816Y2279599D01*
X1117346Y2294077D01*
X1111097Y2307894D01*
X1103274Y2320848D01*
X1093927Y2332786D01*
X1083208Y2343505D01*
X1071270Y2352802D01*
X1058316Y2360676D01*
X1044498Y2366873D01*
X1030020Y2371394D01*
X1015136Y2374138D01*
X999998Y2375052D01*
X984859Y2374138D01*
X969975Y2371394D01*
X955497Y2366873D01*
X941679Y2360676D01*
X928725Y2352802D01*
X916787Y2343505D01*
X906068Y2332786D01*
X896721Y2320848D01*
X888898Y2307894D01*
X882650Y2294077D01*
X878179Y2279599D01*
X875436Y2264664D01*
X874521Y2249576D01*
X875436Y2234438D01*
X878179Y2219502D01*
X882650Y2205075D01*
X888898Y2191258D01*
X896721Y2178253D01*
X906068Y2166366D01*
X916787Y2155647D01*
X928725Y2146300D01*
X941679Y2138426D01*
X955497Y2132228D01*
X969975Y2127707D01*
X984859Y2124964D01*
G37*
G36*
X3952392Y2125319D02*
G01*
X3952392Y2174392D01*
X3903319Y2174392D01*
X3906469Y2167991D01*
X3914343Y2156256D01*
X3923639Y2145639D01*
X3934256Y2136343D01*
X3945991Y2128469D01*
G37*
G36*
X4047591Y2125319D02*
G01*
X4053992Y2128469D01*
X4065727Y2136343D01*
X4076344Y2145639D01*
X4085640Y2156256D01*
X4093514Y2167991D01*
X4096664Y2174392D01*
X4047591Y2174392D01*
G37*
G36*
X3903319Y2269591D02*
G01*
X3952392Y2269591D01*
X3952392Y2318664D01*
X3945991Y2315514D01*
X3934256Y2307640D01*
X3923639Y2298344D01*
X3914343Y2287727D01*
X3906469Y2275992D01*
G37*
G36*
X4761992Y2368042D02*
G01*
X4776114Y2368956D01*
X4789932Y2371699D01*
X4803343Y2376220D01*
X4815992Y2382469D01*
X4827727Y2390343D01*
X4838344Y2399639D01*
X4847640Y2410256D01*
X4855514Y2421991D01*
X4861763Y2434691D01*
X4866284Y2448052D01*
X4869078Y2461920D01*
X4869992Y2475992D01*
X4869078Y2490114D01*
X4866284Y2503932D01*
X4861763Y2517343D01*
X4855514Y2529992D01*
X4847640Y2541727D01*
X4838344Y2552344D01*
X4827727Y2561640D01*
X4815992Y2569514D01*
X4803343Y2575763D01*
X4789932Y2580284D01*
X4776114Y2583078D01*
X4761992Y2583992D01*
X4747920Y2583078D01*
X4734052Y2580284D01*
X4720691Y2575763D01*
X4707991Y2569514D01*
X4696256Y2561640D01*
X4685639Y2552344D01*
X4676343Y2541727D01*
X4668469Y2529992D01*
X4662220Y2517343D01*
X4657699Y2503932D01*
X4654956Y2490114D01*
X4654042Y2475992D01*
X4654956Y2461920D01*
X4657699Y2448052D01*
X4662220Y2434691D01*
X4668469Y2421991D01*
X4676343Y2410256D01*
X4685639Y2399639D01*
X4696256Y2390343D01*
X4707991Y2382469D01*
X4720691Y2376220D01*
X4734052Y2371699D01*
X4747920Y2368956D01*
G37*
G36*
X3237992Y2368042D02*
G01*
X3252114Y2368956D01*
X3265932Y2371699D01*
X3279343Y2376220D01*
X3291992Y2382469D01*
X3303727Y2390343D01*
X3314344Y2399639D01*
X3323640Y2410256D01*
X3331514Y2421991D01*
X3337763Y2434691D01*
X3342284Y2448052D01*
X3345078Y2461920D01*
X3345992Y2475992D01*
X3345078Y2490114D01*
X3342284Y2503932D01*
X3337763Y2517343D01*
X3331514Y2529992D01*
X3323640Y2541727D01*
X3314344Y2552344D01*
X3303727Y2561640D01*
X3291992Y2569514D01*
X3279343Y2575763D01*
X3265932Y2580284D01*
X3252114Y2583078D01*
X3237992Y2583992D01*
X3223920Y2583078D01*
X3210052Y2580284D01*
X3196691Y2575763D01*
X3183991Y2569514D01*
X3172256Y2561640D01*
X3161639Y2552344D01*
X3152343Y2541727D01*
X3144469Y2529992D01*
X3138220Y2517343D01*
X3133699Y2503932D01*
X3130956Y2490114D01*
X3130042Y2475992D01*
X3130956Y2461920D01*
X3133699Y2448052D01*
X3138220Y2434691D01*
X3144469Y2421991D01*
X3152343Y2410256D01*
X3161639Y2399639D01*
X3172256Y2390343D01*
X3183991Y2382469D01*
X3196691Y2376220D01*
X3210052Y2371699D01*
X3223920Y2368956D01*
G37*
G36*
X4761992Y2622042D02*
G01*
X4776114Y2622956D01*
X4789932Y2625699D01*
X4803343Y2630220D01*
X4815992Y2636469D01*
X4827727Y2644343D01*
X4838344Y2653639D01*
X4847640Y2664256D01*
X4855514Y2675991D01*
X4861763Y2688691D01*
X4866284Y2702052D01*
X4869078Y2715920D01*
X4869992Y2729992D01*
X4869078Y2744114D01*
X4866284Y2757932D01*
X4861763Y2771343D01*
X4855514Y2783992D01*
X4847640Y2795727D01*
X4838344Y2806344D01*
X4827727Y2815640D01*
X4815992Y2823514D01*
X4803343Y2829763D01*
X4789932Y2834284D01*
X4776114Y2837078D01*
X4761992Y2837992D01*
X4747920Y2837078D01*
X4734052Y2834284D01*
X4720691Y2829763D01*
X4707991Y2823514D01*
X4696256Y2815640D01*
X4685639Y2806344D01*
X4676343Y2795727D01*
X4668469Y2783992D01*
X4662220Y2771343D01*
X4657699Y2757932D01*
X4654956Y2744114D01*
X4654042Y2729992D01*
X4654956Y2715920D01*
X4657699Y2702052D01*
X4662220Y2688691D01*
X4668469Y2675991D01*
X4676343Y2664256D01*
X4685639Y2653639D01*
X4696256Y2644343D01*
X4707991Y2636469D01*
X4720691Y2630220D01*
X4734052Y2625699D01*
X4747920Y2622956D01*
G37*
G36*
X3237992Y2622042D02*
G01*
X3252114Y2622956D01*
X3265932Y2625699D01*
X3279343Y2630220D01*
X3291992Y2636469D01*
X3303727Y2644343D01*
X3314344Y2653639D01*
X3323640Y2664256D01*
X3331514Y2675991D01*
X3337763Y2688691D01*
X3342284Y2702052D01*
X3345078Y2715920D01*
X3345992Y2729992D01*
X3345078Y2744114D01*
X3342284Y2757932D01*
X3337763Y2771343D01*
X3331514Y2783992D01*
X3323640Y2795727D01*
X3314344Y2806344D01*
X3303727Y2815640D01*
X3291992Y2823514D01*
X3279343Y2829763D01*
X3265932Y2834284D01*
X3252114Y2837078D01*
X3237992Y2837992D01*
X3223920Y2837078D01*
X3210052Y2834284D01*
X3196691Y2829763D01*
X3183991Y2823514D01*
X3172256Y2815640D01*
X3161639Y2806344D01*
X3152343Y2795727D01*
X3144469Y2783992D01*
X3138220Y2771343D01*
X3133699Y2757932D01*
X3130956Y2744114D01*
X3130042Y2729992D01*
X3130956Y2715920D01*
X3133699Y2702052D01*
X3138220Y2688691D01*
X3144469Y2675991D01*
X3152343Y2664256D01*
X3161639Y2653639D01*
X3172256Y2644343D01*
X3183991Y2636469D01*
X3196691Y2630220D01*
X3210052Y2625699D01*
X3223920Y2622956D01*
G37*
G36*
X6999986Y2624937D02*
G01*
X7015124Y2625852D01*
X7030008Y2628595D01*
X7044486Y2633116D01*
X7058304Y2639314D01*
X7071258Y2647188D01*
X7083196Y2656535D01*
X7093915Y2667254D01*
X7103262Y2679141D01*
X7111085Y2692146D01*
X7117334Y2705963D01*
X7121855Y2720390D01*
X7124547Y2735326D01*
X7125462Y2750464D01*
X7124547Y2765552D01*
X7121855Y2780487D01*
X7117334Y2794965D01*
X7111085Y2808782D01*
X7103262Y2821736D01*
X7093915Y2833674D01*
X7083196Y2844393D01*
X7071258Y2853690D01*
X7058304Y2861564D01*
X7044486Y2867761D01*
X7030008Y2872282D01*
X7015124Y2875026D01*
X6999986Y2875940D01*
X6984898Y2875026D01*
X6969963Y2872282D01*
X6955485Y2867761D01*
X6941667Y2861564D01*
X6928713Y2853690D01*
X6916775Y2844393D01*
X6906056Y2833674D01*
X6896709Y2821736D01*
X6888886Y2808782D01*
X6882688Y2794965D01*
X6878167Y2780487D01*
X6875424Y2765552D01*
X6874509Y2750464D01*
X6875424Y2735326D01*
X6878167Y2720390D01*
X6882688Y2705963D01*
X6888886Y2692146D01*
X6896709Y2679141D01*
X6906056Y2667254D01*
X6916775Y2656535D01*
X6928713Y2647188D01*
X6941667Y2639314D01*
X6955485Y2633116D01*
X6969963Y2628595D01*
X6984898Y2625852D01*
G37*
G36*
X4761992Y2876042D02*
G01*
X4776114Y2876956D01*
X4789932Y2879699D01*
X4803343Y2884220D01*
X4815992Y2890469D01*
X4827727Y2898343D01*
X4838344Y2907639D01*
X4847640Y2918256D01*
X4855514Y2929991D01*
X4861763Y2942691D01*
X4866284Y2956052D01*
X4869078Y2969920D01*
X4869992Y2983992D01*
X4869078Y2998114D01*
X4866284Y3011932D01*
X4861763Y3025343D01*
X4855514Y3037992D01*
X4847640Y3049727D01*
X4838344Y3060344D01*
X4827727Y3069640D01*
X4815992Y3077514D01*
X4803343Y3083763D01*
X4789932Y3088284D01*
X4776114Y3091078D01*
X4761992Y3091992D01*
X4747920Y3091078D01*
X4734052Y3088284D01*
X4720691Y3083763D01*
X4707991Y3077514D01*
X4696256Y3069640D01*
X4685639Y3060344D01*
X4676343Y3049727D01*
X4668469Y3037992D01*
X4662220Y3025343D01*
X4657699Y3011932D01*
X4654956Y2998114D01*
X4654042Y2983992D01*
X4654956Y2969920D01*
X4657699Y2956052D01*
X4662220Y2942691D01*
X4668469Y2929991D01*
X4676343Y2918256D01*
X4685639Y2907639D01*
X4696256Y2898343D01*
X4707991Y2890469D01*
X4720691Y2884220D01*
X4734052Y2879699D01*
X4747920Y2876956D01*
G37*
G36*
X3237992Y2876042D02*
G01*
X3252114Y2876956D01*
X3265932Y2879699D01*
X3279343Y2884220D01*
X3291992Y2890469D01*
X3303727Y2898343D01*
X3314344Y2907639D01*
X3323640Y2918256D01*
X3331514Y2929991D01*
X3337763Y2942691D01*
X3342284Y2956052D01*
X3345078Y2969920D01*
X3345992Y2983992D01*
X3345078Y2998114D01*
X3342284Y3011932D01*
X3337763Y3025343D01*
X3331514Y3037992D01*
X3323640Y3049727D01*
X3314344Y3060344D01*
X3303727Y3069640D01*
X3291992Y3077514D01*
X3279343Y3083763D01*
X3265932Y3088284D01*
X3252114Y3091078D01*
X3237992Y3091992D01*
X3223920Y3091078D01*
X3210052Y3088284D01*
X3196691Y3083763D01*
X3183991Y3077514D01*
X3172256Y3069640D01*
X3161639Y3060344D01*
X3152343Y3049727D01*
X3144469Y3037992D01*
X3138220Y3025343D01*
X3133699Y3011932D01*
X3130956Y2998114D01*
X3130042Y2983992D01*
X3130956Y2969920D01*
X3133699Y2956052D01*
X3138220Y2942691D01*
X3144469Y2929991D01*
X3152343Y2918256D01*
X3161639Y2907639D01*
X3172256Y2898343D01*
X3183991Y2890469D01*
X3196691Y2884220D01*
X3210052Y2879699D01*
X3223920Y2876956D01*
G37*
G36*
X4761992Y3130042D02*
G01*
X4776114Y3130956D01*
X4789932Y3133699D01*
X4803343Y3138220D01*
X4815992Y3144469D01*
X4827727Y3152343D01*
X4838344Y3161639D01*
X4847640Y3172256D01*
X4855514Y3183991D01*
X4861763Y3196691D01*
X4866284Y3210052D01*
X4869078Y3223920D01*
X4869992Y3237992D01*
X4869078Y3252114D01*
X4866284Y3265932D01*
X4861763Y3279343D01*
X4855514Y3291992D01*
X4847640Y3303727D01*
X4838344Y3314344D01*
X4827727Y3323640D01*
X4815992Y3331514D01*
X4803343Y3337763D01*
X4789932Y3342284D01*
X4776114Y3345078D01*
X4761992Y3345992D01*
X4747920Y3345078D01*
X4734052Y3342284D01*
X4720691Y3337763D01*
X4707991Y3331514D01*
X4696256Y3323640D01*
X4685639Y3314344D01*
X4676343Y3303727D01*
X4668469Y3291992D01*
X4662220Y3279343D01*
X4657699Y3265932D01*
X4654956Y3252114D01*
X4654042Y3237992D01*
X4654956Y3223920D01*
X4657699Y3210052D01*
X4662220Y3196691D01*
X4668469Y3183991D01*
X4676343Y3172256D01*
X4685639Y3161639D01*
X4696256Y3152343D01*
X4707991Y3144469D01*
X4720691Y3138220D01*
X4734052Y3133699D01*
X4747920Y3130956D01*
G37*
G36*
X3237992Y3130042D02*
G01*
X3252114Y3130956D01*
X3265932Y3133699D01*
X3279343Y3138220D01*
X3291992Y3144469D01*
X3303727Y3152343D01*
X3314344Y3161639D01*
X3323640Y3172256D01*
X3331514Y3183991D01*
X3337763Y3196691D01*
X3342284Y3210052D01*
X3345078Y3223920D01*
X3345992Y3237992D01*
X3345078Y3252114D01*
X3342284Y3265932D01*
X3337763Y3279343D01*
X3331514Y3291992D01*
X3323640Y3303727D01*
X3314344Y3314344D01*
X3303727Y3323640D01*
X3291992Y3331514D01*
X3279343Y3337763D01*
X3265932Y3342284D01*
X3252114Y3345078D01*
X3237992Y3345992D01*
X3223920Y3345078D01*
X3210052Y3342284D01*
X3196691Y3337763D01*
X3183991Y3331514D01*
X3172256Y3323640D01*
X3161639Y3314344D01*
X3152343Y3303727D01*
X3144469Y3291992D01*
X3138220Y3279343D01*
X3133699Y3265932D01*
X3130956Y3252114D01*
X3130042Y3237992D01*
X3130956Y3223920D01*
X3133699Y3210052D01*
X3138220Y3196691D01*
X3144469Y3183991D01*
X3152343Y3172256D01*
X3161639Y3161639D01*
X3172256Y3152343D01*
X3183991Y3144469D01*
X3196691Y3138220D01*
X3210052Y3133699D01*
X3223920Y3130956D01*
G37*
G36*
X6999986Y7124953D02*
G01*
X7015124Y7125868D01*
X7030008Y7128611D01*
X7044486Y7133132D01*
X7058304Y7139330D01*
X7071258Y7147153D01*
X7083196Y7156500D01*
X7093915Y7167219D01*
X7103262Y7179157D01*
X7111085Y7192111D01*
X7117334Y7205929D01*
X7121855Y7220407D01*
X7124547Y7235342D01*
X7125462Y7250430D01*
X7124547Y7265568D01*
X7121855Y7280452D01*
X7117334Y7294930D01*
X7111085Y7308748D01*
X7103262Y7321702D01*
X7093915Y7333640D01*
X7083196Y7344359D01*
X7071258Y7353706D01*
X7058304Y7361529D01*
X7044486Y7367778D01*
X7030008Y7372299D01*
X7015124Y7374991D01*
X6999986Y7375906D01*
X6984898Y7374991D01*
X6969963Y7372299D01*
X6955485Y7367778D01*
X6941667Y7361529D01*
X6928713Y7353706D01*
X6916775Y7344359D01*
X6906056Y7333640D01*
X6896709Y7321702D01*
X6888886Y7308748D01*
X6882688Y7294930D01*
X6878167Y7280452D01*
X6875424Y7265568D01*
X6874509Y7250430D01*
X6875424Y7235342D01*
X6878167Y7220407D01*
X6882688Y7205929D01*
X6888886Y7192111D01*
X6896709Y7179157D01*
X6906056Y7167219D01*
X6916775Y7156500D01*
X6928713Y7147153D01*
X6941667Y7139330D01*
X6955485Y7133132D01*
X6969963Y7128611D01*
X6984898Y7125868D01*
G37*
G36*
X3237992Y3384042D02*
G01*
X3252114Y3384956D01*
X3265932Y3387699D01*
X3279343Y3392220D01*
X3291992Y3398469D01*
X3303727Y3406343D01*
X3314344Y3415639D01*
X3323640Y3426256D01*
X3331514Y3437991D01*
X3337763Y3450691D01*
X3342284Y3464051D01*
X3345078Y3477920D01*
X3345992Y3491992D01*
X3345078Y3506114D01*
X3342284Y3519932D01*
X3337763Y3533343D01*
X3331514Y3545992D01*
X3323640Y3557727D01*
X3314344Y3568344D01*
X3303727Y3577640D01*
X3291992Y3585514D01*
X3279343Y3591763D01*
X3265932Y3596284D01*
X3252114Y3599078D01*
X3237992Y3599992D01*
X3223920Y3599078D01*
X3210052Y3596284D01*
X3196691Y3591763D01*
X3183991Y3585514D01*
X3172256Y3577640D01*
X3161639Y3568344D01*
X3152343Y3557727D01*
X3144469Y3545992D01*
X3138220Y3533343D01*
X3133699Y3519932D01*
X3130956Y3506114D01*
X3130042Y3491992D01*
X3130956Y3477920D01*
X3133699Y3464051D01*
X3138220Y3450691D01*
X3144469Y3437991D01*
X3152343Y3426256D01*
X3161639Y3415639D01*
X3172256Y3406343D01*
X3183991Y3398469D01*
X3196691Y3392220D01*
X3210052Y3387699D01*
X3223920Y3384956D01*
G37*
G36*
X999998Y3624072D02*
G01*
X1015136Y3624986D01*
X1030020Y3627729D01*
X1044498Y3632250D01*
X1058316Y3638448D01*
X1071270Y3646271D01*
X1083208Y3655618D01*
X1093927Y3666337D01*
X1103274Y3678275D01*
X1111097Y3691229D01*
X1117346Y3705047D01*
X1121816Y3719525D01*
X1124559Y3734409D01*
X1125474Y3749548D01*
X1124559Y3764686D01*
X1121816Y3779570D01*
X1117346Y3794048D01*
X1111097Y3807866D01*
X1103274Y3820820D01*
X1093927Y3832758D01*
X1083208Y3843477D01*
X1071270Y3852824D01*
X1058316Y3860647D01*
X1044498Y3866896D01*
X1030020Y3871417D01*
X1015136Y3874109D01*
X999998Y3875024D01*
X984859Y3874109D01*
X969975Y3871417D01*
X955497Y3866896D01*
X941679Y3860647D01*
X928725Y3852824D01*
X916787Y3843477D01*
X906068Y3832758D01*
X896721Y3820820D01*
X888898Y3807866D01*
X882650Y3794048D01*
X878179Y3779570D01*
X875436Y3764686D01*
X874521Y3749548D01*
X875436Y3734409D01*
X878179Y3719525D01*
X882650Y3705047D01*
X888898Y3691229D01*
X896721Y3678275D01*
X906068Y3666337D01*
X916787Y3655618D01*
X928725Y3646271D01*
X941679Y3638448D01*
X955497Y3632250D01*
X969975Y3627729D01*
X984859Y3624986D01*
G37*
G36*
X4761992Y3638042D02*
G01*
X4776114Y3638956D01*
X4789932Y3641699D01*
X4803343Y3646220D01*
X4815992Y3652469D01*
X4827727Y3660343D01*
X4838344Y3669639D01*
X4847640Y3680256D01*
X4855514Y3691991D01*
X4861763Y3704691D01*
X4866284Y3718051D01*
X4869078Y3731920D01*
X4869992Y3745992D01*
X4869078Y3760114D01*
X4866284Y3773932D01*
X4861763Y3787343D01*
X4855514Y3799992D01*
X4847640Y3811727D01*
X4838344Y3822344D01*
X4827727Y3831640D01*
X4815992Y3839514D01*
X4803343Y3845763D01*
X4789932Y3850284D01*
X4776114Y3853078D01*
X4761992Y3853992D01*
X4747920Y3853078D01*
X4734052Y3850284D01*
X4720691Y3845763D01*
X4707991Y3839514D01*
X4696256Y3831640D01*
X4685639Y3822344D01*
X4676343Y3811727D01*
X4668469Y3799992D01*
X4662220Y3787343D01*
X4657699Y3773932D01*
X4654956Y3760114D01*
X4654042Y3745992D01*
X4654956Y3731920D01*
X4657699Y3718051D01*
X4662220Y3704691D01*
X4668469Y3691991D01*
X4676343Y3680256D01*
X4685639Y3669639D01*
X4696256Y3660343D01*
X4707991Y3652469D01*
X4720691Y3646220D01*
X4734052Y3641699D01*
X4747920Y3638956D01*
G37*
G36*
X3237992Y3638042D02*
G01*
X3252114Y3638956D01*
X3265932Y3641699D01*
X3279343Y3646220D01*
X3291992Y3652469D01*
X3303727Y3660343D01*
X3314344Y3669639D01*
X3323640Y3680256D01*
X3331514Y3691991D01*
X3337763Y3704691D01*
X3342284Y3718051D01*
X3345078Y3731920D01*
X3345992Y3745992D01*
X3345078Y3760114D01*
X3342284Y3773932D01*
X3337763Y3787343D01*
X3331514Y3799992D01*
X3323640Y3811727D01*
X3314344Y3822344D01*
X3303727Y3831640D01*
X3291992Y3839514D01*
X3279343Y3845763D01*
X3265932Y3850284D01*
X3252114Y3853078D01*
X3237992Y3853992D01*
X3223920Y3853078D01*
X3210052Y3850284D01*
X3196691Y3845763D01*
X3183991Y3839514D01*
X3172256Y3831640D01*
X3161639Y3822344D01*
X3152343Y3811727D01*
X3144469Y3799992D01*
X3138220Y3787343D01*
X3133699Y3773932D01*
X3130956Y3760114D01*
X3130042Y3745992D01*
X3130956Y3731920D01*
X3133699Y3718051D01*
X3138220Y3704691D01*
X3144469Y3691991D01*
X3152343Y3680256D01*
X3161639Y3669639D01*
X3172256Y3660343D01*
X3183991Y3652469D01*
X3196691Y3646220D01*
X3210052Y3641699D01*
X3223920Y3638956D01*
G37*
G36*
X4761992Y3892042D02*
G01*
X4776114Y3892956D01*
X4789932Y3895699D01*
X4803343Y3900220D01*
X4815992Y3906469D01*
X4827727Y3914343D01*
X4838344Y3923639D01*
X4847640Y3934256D01*
X4855514Y3945991D01*
X4861763Y3958691D01*
X4866284Y3972051D01*
X4869078Y3985920D01*
X4869992Y3999992D01*
X4869078Y4014114D01*
X4866284Y4027932D01*
X4861763Y4041343D01*
X4855514Y4053992D01*
X4847640Y4065727D01*
X4838344Y4076344D01*
X4827727Y4085640D01*
X4815992Y4093514D01*
X4803343Y4099763D01*
X4789932Y4104284D01*
X4776114Y4107078D01*
X4761992Y4107992D01*
X4747920Y4107078D01*
X4734052Y4104284D01*
X4720691Y4099763D01*
X4707991Y4093514D01*
X4696256Y4085640D01*
X4685639Y4076344D01*
X4676343Y4065727D01*
X4668469Y4053992D01*
X4662220Y4041343D01*
X4657699Y4027932D01*
X4654956Y4014114D01*
X4654042Y3999992D01*
X4654956Y3985920D01*
X4657699Y3972051D01*
X4662220Y3958691D01*
X4668469Y3945991D01*
X4676343Y3934256D01*
X4685639Y3923639D01*
X4696256Y3914343D01*
X4707991Y3906469D01*
X4720691Y3900220D01*
X4734052Y3895699D01*
X4747920Y3892956D01*
G37*
G36*
X3237992Y3892042D02*
G01*
X3252114Y3892956D01*
X3265932Y3895699D01*
X3279343Y3900220D01*
X3291992Y3906469D01*
X3303727Y3914343D01*
X3314344Y3923639D01*
X3323640Y3934256D01*
X3331514Y3945991D01*
X3337763Y3958691D01*
X3342284Y3972051D01*
X3345078Y3985920D01*
X3345992Y3999992D01*
X3345078Y4014114D01*
X3342284Y4027932D01*
X3337763Y4041343D01*
X3331514Y4053992D01*
X3323640Y4065727D01*
X3314344Y4076344D01*
X3303727Y4085640D01*
X3291992Y4093514D01*
X3279343Y4099763D01*
X3265932Y4104284D01*
X3252114Y4107078D01*
X3237992Y4107992D01*
X3223920Y4107078D01*
X3210052Y4104284D01*
X3196691Y4099763D01*
X3183991Y4093514D01*
X3172256Y4085640D01*
X3161639Y4076344D01*
X3152343Y4065727D01*
X3144469Y4053992D01*
X3138220Y4041343D01*
X3133699Y4027932D01*
X3130956Y4014114D01*
X3130042Y3999992D01*
X3130956Y3985920D01*
X3133699Y3972051D01*
X3138220Y3958691D01*
X3144469Y3945991D01*
X3152343Y3934256D01*
X3161639Y3923639D01*
X3172256Y3914343D01*
X3183991Y3906469D01*
X3196691Y3900220D01*
X3210052Y3895699D01*
X3223920Y3892956D01*
G37*
G36*
X6999986Y4124960D02*
G01*
X7015124Y4125874D01*
X7030008Y4128617D01*
X7044486Y4133138D01*
X7058304Y4139336D01*
X7071258Y4147159D01*
X7083196Y4156506D01*
X7093915Y4167225D01*
X7103262Y4179163D01*
X7111085Y4192117D01*
X7117334Y4205935D01*
X7121855Y4220413D01*
X7124547Y4235297D01*
X7125462Y4250436D01*
X7124547Y4265574D01*
X7121855Y4280458D01*
X7117334Y4294936D01*
X7111085Y4308754D01*
X7103262Y4321708D01*
X7093915Y4333646D01*
X7083196Y4344365D01*
X7071258Y4353712D01*
X7058304Y4361535D01*
X7044486Y4367784D01*
X7030008Y4372305D01*
X7015124Y4374997D01*
X6999986Y4375912D01*
X6984898Y4374997D01*
X6969963Y4372305D01*
X6955485Y4367784D01*
X6941667Y4361535D01*
X6928713Y4353712D01*
X6916775Y4344365D01*
X6906056Y4333646D01*
X6896709Y4321708D01*
X6888886Y4308754D01*
X6882688Y4294936D01*
X6878167Y4280458D01*
X6875424Y4265574D01*
X6874509Y4250436D01*
X6875424Y4235297D01*
X6878167Y4220413D01*
X6882688Y4205935D01*
X6888886Y4192117D01*
X6896709Y4179163D01*
X6906056Y4167225D01*
X6916775Y4156506D01*
X6928713Y4147159D01*
X6941667Y4139336D01*
X6955485Y4133138D01*
X6969963Y4128617D01*
X6984898Y4125874D01*
G37*
G36*
X3237992Y4146042D02*
G01*
X3252114Y4146956D01*
X3265932Y4149699D01*
X3279343Y4154220D01*
X3291992Y4160469D01*
X3303727Y4168343D01*
X3314344Y4177639D01*
X3323640Y4188256D01*
X3331514Y4199991D01*
X3337763Y4212691D01*
X3342284Y4226052D01*
X3345078Y4239920D01*
X3345992Y4253992D01*
X3345078Y4268114D01*
X3342284Y4281932D01*
X3337763Y4295343D01*
X3331514Y4307992D01*
X3323640Y4319727D01*
X3314344Y4330344D01*
X3303727Y4339640D01*
X3291992Y4347514D01*
X3279343Y4353763D01*
X3265932Y4358284D01*
X3252114Y4361078D01*
X3237992Y4361992D01*
X3223920Y4361078D01*
X3210052Y4358284D01*
X3196691Y4353763D01*
X3183991Y4347514D01*
X3172256Y4339640D01*
X3161639Y4330344D01*
X3152343Y4319727D01*
X3144469Y4307992D01*
X3138220Y4295343D01*
X3133699Y4281932D01*
X3130956Y4268114D01*
X3130042Y4253992D01*
X3130956Y4239920D01*
X3133699Y4226052D01*
X3138220Y4212691D01*
X3144469Y4199991D01*
X3152343Y4188256D01*
X3161639Y4177639D01*
X3172256Y4168343D01*
X3183991Y4160469D01*
X3196691Y4154220D01*
X3210052Y4149699D01*
X3223920Y4146956D01*
G37*
G36*
X4507992Y4146042D02*
G01*
X4522114Y4146956D01*
X4535932Y4149699D01*
X4549343Y4154220D01*
X4561992Y4160469D01*
X4573727Y4168343D01*
X4584344Y4177639D01*
X4593640Y4188256D01*
X4601514Y4199991D01*
X4607763Y4212691D01*
X4612284Y4226052D01*
X4615078Y4239920D01*
X4615992Y4253992D01*
X4615078Y4268114D01*
X4612284Y4281932D01*
X4607763Y4295343D01*
X4601514Y4307992D01*
X4593640Y4319727D01*
X4584344Y4330344D01*
X4573727Y4339640D01*
X4561992Y4347514D01*
X4549343Y4353763D01*
X4535932Y4358284D01*
X4522114Y4361078D01*
X4507992Y4361992D01*
X4493920Y4361078D01*
X4480052Y4358284D01*
X4466691Y4353763D01*
X4453991Y4347514D01*
X4442256Y4339640D01*
X4431639Y4330344D01*
X4422343Y4319727D01*
X4414469Y4307992D01*
X4408220Y4295343D01*
X4403699Y4281932D01*
X4400956Y4268114D01*
X4400042Y4253992D01*
X4400956Y4239920D01*
X4403699Y4226052D01*
X4408220Y4212691D01*
X4414469Y4199991D01*
X4422343Y4188256D01*
X4431639Y4177639D01*
X4442256Y4168343D01*
X4453991Y4160469D01*
X4466691Y4154220D01*
X4480052Y4149699D01*
X4493920Y4146956D01*
G37*
G36*
X4761992Y4146042D02*
G01*
X4776114Y4146956D01*
X4789932Y4149699D01*
X4803343Y4154220D01*
X4815992Y4160469D01*
X4827727Y4168343D01*
X4838344Y4177639D01*
X4847640Y4188256D01*
X4855514Y4199991D01*
X4861763Y4212691D01*
X4866284Y4226052D01*
X4869078Y4239920D01*
X4869992Y4253992D01*
X4869078Y4268114D01*
X4866284Y4281932D01*
X4861763Y4295343D01*
X4855514Y4307992D01*
X4847640Y4319727D01*
X4838344Y4330344D01*
X4827727Y4339640D01*
X4815992Y4347514D01*
X4803343Y4353763D01*
X4789932Y4358284D01*
X4776114Y4361078D01*
X4761992Y4361992D01*
X4747920Y4361078D01*
X4734052Y4358284D01*
X4720691Y4353763D01*
X4707991Y4347514D01*
X4696256Y4339640D01*
X4685639Y4330344D01*
X4676343Y4319727D01*
X4668469Y4307992D01*
X4662220Y4295343D01*
X4657699Y4281932D01*
X4654956Y4268114D01*
X4654042Y4253992D01*
X4654956Y4239920D01*
X4657699Y4226052D01*
X4662220Y4212691D01*
X4668469Y4199991D01*
X4676343Y4188256D01*
X4685639Y4177639D01*
X4696256Y4168343D01*
X4707991Y4160469D01*
X4720691Y4154220D01*
X4734052Y4149699D01*
X4747920Y4146956D01*
G37*
G36*
X4761992Y4400042D02*
G01*
X4776114Y4400956D01*
X4789932Y4403699D01*
X4803343Y4408220D01*
X4815992Y4414469D01*
X4827727Y4422343D01*
X4838344Y4431639D01*
X4847640Y4442256D01*
X4855514Y4453991D01*
X4861763Y4466691D01*
X4866284Y4480052D01*
X4869078Y4493920D01*
X4869992Y4507992D01*
X4869078Y4522114D01*
X4866284Y4535932D01*
X4861763Y4549343D01*
X4855514Y4561992D01*
X4847640Y4573727D01*
X4838344Y4584344D01*
X4827727Y4593640D01*
X4815992Y4601514D01*
X4803343Y4607763D01*
X4789932Y4612284D01*
X4776114Y4615078D01*
X4761992Y4615992D01*
X4747920Y4615078D01*
X4734052Y4612284D01*
X4720691Y4607763D01*
X4707991Y4601514D01*
X4696256Y4593640D01*
X4685639Y4584344D01*
X4676343Y4573727D01*
X4668469Y4561992D01*
X4662220Y4549343D01*
X4657699Y4535932D01*
X4654956Y4522114D01*
X4654042Y4507992D01*
X4654956Y4493920D01*
X4657699Y4480052D01*
X4662220Y4466691D01*
X4668469Y4453991D01*
X4676343Y4442256D01*
X4685639Y4431639D01*
X4696256Y4422343D01*
X4707991Y4414469D01*
X4720691Y4408220D01*
X4734052Y4403699D01*
X4747920Y4400956D01*
G37*
G36*
X4507992Y4400042D02*
G01*
X4522114Y4400956D01*
X4535932Y4403699D01*
X4549343Y4408220D01*
X4561992Y4414469D01*
X4573727Y4422343D01*
X4584344Y4431639D01*
X4593640Y4442256D01*
X4601514Y4453991D01*
X4607763Y4466691D01*
X4612284Y4480052D01*
X4615078Y4493920D01*
X4615992Y4507992D01*
X4615078Y4522114D01*
X4612284Y4535932D01*
X4607763Y4549343D01*
X4601514Y4561992D01*
X4593640Y4573727D01*
X4584344Y4584344D01*
X4573727Y4593640D01*
X4561992Y4601514D01*
X4549343Y4607763D01*
X4535932Y4612284D01*
X4522114Y4615078D01*
X4507992Y4615992D01*
X4493920Y4615078D01*
X4480052Y4612284D01*
X4466691Y4607763D01*
X4453991Y4601514D01*
X4442256Y4593640D01*
X4431639Y4584344D01*
X4422343Y4573727D01*
X4414469Y4561992D01*
X4408220Y4549343D01*
X4403699Y4535932D01*
X4400956Y4522114D01*
X4400042Y4507992D01*
X4400956Y4493920D01*
X4403699Y4480052D01*
X4408220Y4466691D01*
X4414469Y4453991D01*
X4422343Y4442256D01*
X4431639Y4431639D01*
X4442256Y4422343D01*
X4453991Y4414469D01*
X4466691Y4408220D01*
X4480052Y4403699D01*
X4493920Y4400956D01*
G37*
G36*
X3237992Y4400042D02*
G01*
X3252114Y4400956D01*
X3265932Y4403699D01*
X3279343Y4408220D01*
X3291992Y4414469D01*
X3303727Y4422343D01*
X3314344Y4431639D01*
X3323640Y4442256D01*
X3331514Y4453991D01*
X3337763Y4466691D01*
X3342284Y4480052D01*
X3345078Y4493920D01*
X3345992Y4507992D01*
X3345078Y4522114D01*
X3342284Y4535932D01*
X3337763Y4549343D01*
X3331514Y4561992D01*
X3323640Y4573727D01*
X3314344Y4584344D01*
X3303727Y4593640D01*
X3291992Y4601514D01*
X3279343Y4607763D01*
X3265932Y4612284D01*
X3252114Y4615078D01*
X3237992Y4615992D01*
X3223920Y4615078D01*
X3210052Y4612284D01*
X3196691Y4607763D01*
X3183991Y4601514D01*
X3172256Y4593640D01*
X3161639Y4584344D01*
X3152343Y4573727D01*
X3144469Y4561992D01*
X3138220Y4549343D01*
X3133699Y4535932D01*
X3130956Y4522114D01*
X3130042Y4507992D01*
X3130956Y4493920D01*
X3133699Y4480052D01*
X3138220Y4466691D01*
X3144469Y4453991D01*
X3152343Y4442256D01*
X3161639Y4431639D01*
X3172256Y4422343D01*
X3183991Y4414469D01*
X3196691Y4408220D01*
X3210052Y4403699D01*
X3223920Y4400956D01*
G37*
G36*
X4761992Y4654042D02*
G01*
X4776114Y4654956D01*
X4789932Y4657699D01*
X4803343Y4662220D01*
X4815992Y4668469D01*
X4827727Y4676343D01*
X4838344Y4685639D01*
X4847640Y4696256D01*
X4855514Y4707991D01*
X4861763Y4720691D01*
X4866284Y4734052D01*
X4869078Y4747920D01*
X4869992Y4761992D01*
X4869078Y4776114D01*
X4866284Y4789932D01*
X4861763Y4803343D01*
X4855514Y4815992D01*
X4847640Y4827727D01*
X4838344Y4838344D01*
X4827727Y4847640D01*
X4815992Y4855514D01*
X4803343Y4861763D01*
X4789932Y4866284D01*
X4776114Y4869078D01*
X4761992Y4869992D01*
X4747920Y4869078D01*
X4734052Y4866284D01*
X4720691Y4861763D01*
X4707991Y4855514D01*
X4696256Y4847640D01*
X4685639Y4838344D01*
X4676343Y4827727D01*
X4668469Y4815992D01*
X4662220Y4803343D01*
X4657699Y4789932D01*
X4654956Y4776114D01*
X4654042Y4761992D01*
X4654956Y4747920D01*
X4657699Y4734052D01*
X4662220Y4720691D01*
X4668469Y4707991D01*
X4676343Y4696256D01*
X4685639Y4685639D01*
X4696256Y4676343D01*
X4707991Y4668469D01*
X4720691Y4662220D01*
X4734052Y4657699D01*
X4747920Y4654956D01*
G37*
G36*
X3237992Y4654042D02*
G01*
X3252114Y4654956D01*
X3265932Y4657699D01*
X3279343Y4662220D01*
X3291992Y4668469D01*
X3303727Y4676343D01*
X3314344Y4685639D01*
X3323640Y4696256D01*
X3331514Y4707991D01*
X3337763Y4720691D01*
X3342284Y4734052D01*
X3345078Y4747920D01*
X3345992Y4761992D01*
X3345078Y4776114D01*
X3342284Y4789932D01*
X3337763Y4803343D01*
X3331514Y4815992D01*
X3323640Y4827727D01*
X3314344Y4838344D01*
X3303727Y4847640D01*
X3291992Y4855514D01*
X3279343Y4861763D01*
X3265932Y4866284D01*
X3252114Y4869078D01*
X3237992Y4869992D01*
X3223920Y4869078D01*
X3210052Y4866284D01*
X3196691Y4861763D01*
X3183991Y4855514D01*
X3172256Y4847640D01*
X3161639Y4838344D01*
X3152343Y4827727D01*
X3144469Y4815992D01*
X3138220Y4803343D01*
X3133699Y4789932D01*
X3130956Y4776114D01*
X3130042Y4761992D01*
X3130956Y4747920D01*
X3133699Y4734052D01*
X3138220Y4720691D01*
X3144469Y4707991D01*
X3152343Y4696256D01*
X3161639Y4685639D01*
X3172256Y4676343D01*
X3183991Y4668469D01*
X3196691Y4662220D01*
X3210052Y4657699D01*
X3223920Y4654956D01*
G37*
G36*
X4761992Y4908042D02*
G01*
X4776114Y4908956D01*
X4789932Y4911699D01*
X4803343Y4916220D01*
X4815992Y4922469D01*
X4827727Y4930343D01*
X4838344Y4939639D01*
X4847640Y4950256D01*
X4855514Y4961991D01*
X4861763Y4974691D01*
X4866284Y4988052D01*
X4869078Y5001920D01*
X4869992Y5015992D01*
X4869078Y5030114D01*
X4866284Y5043932D01*
X4861763Y5057343D01*
X4855514Y5069992D01*
X4847640Y5081727D01*
X4838344Y5092344D01*
X4827727Y5101640D01*
X4815992Y5109514D01*
X4803343Y5115763D01*
X4789932Y5120284D01*
X4776114Y5123078D01*
X4761992Y5123992D01*
X4747920Y5123078D01*
X4734052Y5120284D01*
X4720691Y5115763D01*
X4707991Y5109514D01*
X4696256Y5101640D01*
X4685639Y5092344D01*
X4676343Y5081727D01*
X4668469Y5069992D01*
X4662220Y5057343D01*
X4657699Y5043932D01*
X4654956Y5030114D01*
X4654042Y5015992D01*
X4654956Y5001920D01*
X4657699Y4988052D01*
X4662220Y4974691D01*
X4668469Y4961991D01*
X4676343Y4950256D01*
X4685639Y4939639D01*
X4696256Y4930343D01*
X4707991Y4922469D01*
X4720691Y4916220D01*
X4734052Y4911699D01*
X4747920Y4908956D01*
G37*
G36*
X3237992Y4908042D02*
G01*
X3252114Y4908956D01*
X3265932Y4911699D01*
X3279343Y4916220D01*
X3291992Y4922469D01*
X3303727Y4930343D01*
X3314344Y4939639D01*
X3323640Y4950256D01*
X3331514Y4961991D01*
X3337763Y4974691D01*
X3342284Y4988052D01*
X3345078Y5001920D01*
X3345992Y5015992D01*
X3345078Y5030114D01*
X3342284Y5043932D01*
X3337763Y5057343D01*
X3331514Y5069992D01*
X3323640Y5081727D01*
X3314344Y5092344D01*
X3303727Y5101640D01*
X3291992Y5109514D01*
X3279343Y5115763D01*
X3265932Y5120284D01*
X3252114Y5123078D01*
X3237992Y5123992D01*
X3223920Y5123078D01*
X3210052Y5120284D01*
X3196691Y5115763D01*
X3183991Y5109514D01*
X3172256Y5101640D01*
X3161639Y5092344D01*
X3152343Y5081727D01*
X3144469Y5069992D01*
X3138220Y5057343D01*
X3133699Y5043932D01*
X3130956Y5030114D01*
X3130042Y5015992D01*
X3130956Y5001920D01*
X3133699Y4988052D01*
X3138220Y4974691D01*
X3144469Y4961991D01*
X3152343Y4950256D01*
X3161639Y4939639D01*
X3172256Y4930343D01*
X3183991Y4922469D01*
X3196691Y4916220D01*
X3210052Y4911699D01*
X3223920Y4908956D01*
G37*
G36*
X999998Y5124094D02*
G01*
X1015136Y5125008D01*
X1030020Y5127701D01*
X1044498Y5132222D01*
X1058316Y5138470D01*
X1071270Y5146294D01*
X1083208Y5155641D01*
X1093927Y5166360D01*
X1103274Y5178298D01*
X1111097Y5191252D01*
X1117346Y5205069D01*
X1121816Y5219547D01*
X1124559Y5234432D01*
X1125474Y5249570D01*
X1124559Y5264658D01*
X1121816Y5279593D01*
X1117346Y5294071D01*
X1111097Y5307888D01*
X1103274Y5320842D01*
X1093927Y5332780D01*
X1083208Y5343499D01*
X1071270Y5352846D01*
X1058316Y5360670D01*
X1044498Y5366867D01*
X1030020Y5371388D01*
X1015136Y5374132D01*
X999998Y5375046D01*
X984859Y5374132D01*
X969975Y5371388D01*
X955497Y5366867D01*
X941679Y5360670D01*
X928725Y5352846D01*
X916787Y5343499D01*
X906068Y5332780D01*
X896721Y5320842D01*
X888898Y5307888D01*
X882650Y5294071D01*
X878179Y5279593D01*
X875436Y5264658D01*
X874521Y5249570D01*
X875436Y5234432D01*
X878179Y5219547D01*
X882650Y5205069D01*
X888898Y5191252D01*
X896721Y5178298D01*
X906068Y5166360D01*
X916787Y5155641D01*
X928725Y5146294D01*
X941679Y5138470D01*
X955497Y5132222D01*
X969975Y5127701D01*
X984859Y5125008D01*
G37*
G36*
X3237992Y5162042D02*
G01*
X3252114Y5162956D01*
X3265932Y5165699D01*
X3279343Y5170220D01*
X3291992Y5176469D01*
X3303727Y5184343D01*
X3314344Y5193639D01*
X3323640Y5204256D01*
X3331514Y5215991D01*
X3337763Y5228691D01*
X3342284Y5242052D01*
X3345078Y5255920D01*
X3345992Y5269992D01*
X3345078Y5284114D01*
X3342284Y5297932D01*
X3337763Y5311343D01*
X3331514Y5323992D01*
X3323640Y5335727D01*
X3314344Y5346344D01*
X3303727Y5355640D01*
X3291992Y5363514D01*
X3279343Y5369763D01*
X3265932Y5374284D01*
X3252114Y5377078D01*
X3237992Y5377992D01*
X3223920Y5377078D01*
X3210052Y5374284D01*
X3196691Y5369763D01*
X3183991Y5363514D01*
X3172256Y5355640D01*
X3161639Y5346344D01*
X3152343Y5335727D01*
X3144469Y5323992D01*
X3138220Y5311343D01*
X3133699Y5297932D01*
X3130956Y5284114D01*
X3130042Y5269992D01*
X3130956Y5255920D01*
X3133699Y5242052D01*
X3138220Y5228691D01*
X3144469Y5215991D01*
X3152343Y5204256D01*
X3161639Y5193639D01*
X3172256Y5184343D01*
X3183991Y5176469D01*
X3196691Y5170220D01*
X3210052Y5165699D01*
X3223920Y5162956D01*
G37*
G36*
X4761992Y5416042D02*
G01*
X4776114Y5416956D01*
X4789932Y5419699D01*
X4803343Y5424220D01*
X4815992Y5430469D01*
X4827727Y5438343D01*
X4838344Y5447639D01*
X4847640Y5458256D01*
X4855514Y5469991D01*
X4861763Y5482691D01*
X4866284Y5496052D01*
X4869078Y5509920D01*
X4869992Y5523992D01*
X4869078Y5538114D01*
X4866284Y5551932D01*
X4861763Y5565343D01*
X4855514Y5577992D01*
X4847640Y5589727D01*
X4838344Y5600344D01*
X4827727Y5609640D01*
X4815992Y5617514D01*
X4803343Y5623763D01*
X4789932Y5628284D01*
X4776114Y5631078D01*
X4761992Y5631992D01*
X4747920Y5631078D01*
X4734052Y5628284D01*
X4720691Y5623763D01*
X4707991Y5617514D01*
X4696256Y5609640D01*
X4685639Y5600344D01*
X4676343Y5589727D01*
X4668469Y5577992D01*
X4662220Y5565343D01*
X4657699Y5551932D01*
X4654956Y5538114D01*
X4654042Y5523992D01*
X4654956Y5509920D01*
X4657699Y5496052D01*
X4662220Y5482691D01*
X4668469Y5469991D01*
X4676343Y5458256D01*
X4685639Y5447639D01*
X4696256Y5438343D01*
X4707991Y5430469D01*
X4720691Y5424220D01*
X4734052Y5419699D01*
X4747920Y5416956D01*
G37*
G36*
X3285591Y5427319D02*
G01*
X3291992Y5430469D01*
X3303727Y5438343D01*
X3314344Y5447639D01*
X3323640Y5458256D01*
X3331514Y5469991D01*
X3334664Y5476392D01*
X3285591Y5476392D01*
G37*
G36*
X3190392Y5427319D02*
G01*
X3190392Y5476392D01*
X3141319Y5476392D01*
X3144469Y5469991D01*
X3152343Y5458256D01*
X3161639Y5447639D01*
X3172256Y5438343D01*
X3183991Y5430469D01*
G37*
G36*
X3285591Y5571591D02*
G01*
X3334664Y5571591D01*
X3331514Y5577992D01*
X3323640Y5589727D01*
X3314344Y5600344D01*
X3303727Y5609640D01*
X3291992Y5617514D01*
X3285591Y5620664D01*
G37*
G36*
X4761992Y3384042D02*
G01*
X4776114Y3384956D01*
X4789932Y3387699D01*
X4803343Y3392220D01*
X4815992Y3398469D01*
X4827727Y3406343D01*
X4838344Y3415639D01*
X4847640Y3426256D01*
X4855514Y3437991D01*
X4861763Y3450691D01*
X4866284Y3464051D01*
X4869078Y3477920D01*
X4869992Y3491992D01*
X4869078Y3506114D01*
X4866284Y3519932D01*
X4861763Y3533343D01*
X4855514Y3545992D01*
X4847640Y3557727D01*
X4838344Y3568344D01*
X4827727Y3577640D01*
X4815992Y3585514D01*
X4803343Y3591763D01*
X4789932Y3596284D01*
X4776114Y3599078D01*
X4761992Y3599992D01*
X4747920Y3599078D01*
X4734052Y3596284D01*
X4720691Y3591763D01*
X4707991Y3585514D01*
X4696256Y3577640D01*
X4685639Y3568344D01*
X4676343Y3557727D01*
X4668469Y3545992D01*
X4662220Y3533343D01*
X4657699Y3519932D01*
X4654956Y3506114D01*
X4654042Y3491992D01*
X4654956Y3477920D01*
X4657699Y3464051D01*
X4662220Y3450691D01*
X4668469Y3437991D01*
X4676343Y3426256D01*
X4685639Y3415639D01*
X4696256Y3406343D01*
X4707991Y3398469D01*
X4720691Y3392220D01*
X4734052Y3387699D01*
X4747920Y3384956D01*
G37*

%LPD*%
D11*
X999997Y7250455D02*
G01*
X499998Y7250455D01*
X999997Y7250455D02*
G01*
X999997Y7600000D01*
X7000011Y749554D02*
G01*
X7000011Y399999D01*
X7000011Y2249551D02*
G01*
X7500000Y2249551D01*
D14*
X4499990Y999997D02*
G01*
X4499990Y2200008D01*
X3999999Y2699999D01*
X3999999Y3782684D01*
X4507991Y5269992D02*
G01*
X3999999Y4761999D01*
X3999999Y2999999D01*
D11*
X999997Y5750432D02*
G01*
X499998Y5750432D01*
X999997Y4250436D02*
G01*
X499998Y4250436D01*
X999997Y2750438D02*
G01*
X499998Y2750438D01*
X999997Y1250442D02*
G01*
X499998Y1250442D01*
X7000011Y6749542D02*
G01*
X7500000Y6749542D01*
X7000011Y5249545D02*
G01*
X7500000Y5249545D01*
X7000011Y3749547D02*
G01*
X7500000Y3749547D01*
X7000011Y749554D02*
G01*
X7500000Y749554D01*
X3999991Y299973D02*
G01*
X3999991Y999997D01*
D13*
G01*
X999997Y7250455D03*
G01*
X999997Y6749567D03*
D22*
G01*
X3237991Y5523992D03*
G01*
X3237991Y5269992D03*
G01*
X3237991Y5015992D03*
G01*
X3237991Y4761992D03*
G01*
X3745991Y2221992D03*
G01*
X3999991Y2221992D03*
G01*
X4761991Y5015992D03*
G01*
X4761991Y5523992D03*
G01*
X4507991Y5269992D03*
G01*
X4507991Y4253992D03*
G01*
X4761991Y3745992D03*
G01*
X4761991Y3491992D03*
G01*
X3237991Y4507992D03*
G01*
X3237991Y4253992D03*
G01*
X3237991Y3999992D03*
G01*
X3237991Y3745992D03*
G01*
X3237991Y3491992D03*
G01*
X3237991Y3237992D03*
G01*
X3237991Y2983992D03*
G01*
X3237991Y2729992D03*
G01*
X3237991Y2475992D03*
G01*
X3237991Y2221992D03*
G01*
X4761991Y2475992D03*
G01*
X4761991Y2729992D03*
G01*
X4761991Y2983992D03*
G01*
X4761991Y3237992D03*
G01*
X4761991Y3999992D03*
G01*
X4761991Y4253992D03*
G01*
X4761991Y4507992D03*
G01*
X4507991Y4507992D03*
G01*
X4761991Y4761992D03*
D13*
G01*
X999997Y5750432D03*
G01*
X999997Y5249545D03*
G01*
X999997Y4250436D03*
G01*
X999997Y3749547D03*
G01*
X999997Y2750438D03*
G01*
X999997Y2249551D03*
G01*
X999997Y1250442D03*
G01*
X999997Y749554D03*
G01*
X7000011Y6749542D03*
G01*
X7000011Y7250429D03*
G01*
X7000011Y5249545D03*
G01*
X7000011Y5750432D03*
G01*
X7000011Y3749547D03*
G01*
X7000011Y4250436D03*
G01*
X7000011Y2249551D03*
G01*
X7000011Y2750438D03*
G01*
X7000011Y749554D03*
G01*
X7000011Y1250442D03*
G01*
X3499993Y999997D03*
G01*
X4000118Y999997D03*
G01*
X4499990Y999997D03*
D15*
G01*
X3500000Y6999998D03*
G01*
X3999999Y6999998D03*
G01*
X4500001Y6999998D03*
G01*
X3500000Y6499999D03*
G01*
X3999999Y6499999D03*
G01*
X4500001Y6499999D03*
G01*
X3500000Y6000000D03*
G01*
X3999999Y6000000D03*
G01*
X4500001Y6000000D03*
G01*
X2500000Y6499999D03*
G01*
X5499999Y6499999D03*
G01*
X5499999Y5000000D03*
G01*
X2500000Y5000000D03*
G01*
X2500000Y3500000D03*
G01*
X5499999Y3500000D03*
G01*
X2500000Y2000001D03*
G01*
X5499999Y2000001D03*
G01*
X2999999Y1499999D03*
G01*
X3500000Y1499999D03*
G01*
X3999999Y1499999D03*
G01*
X5499999Y1499999D03*
G01*
X2500000Y1499999D03*
G01*
X2999999Y2000001D03*
G01*
X3500000Y2000001D03*
G01*
X3999999Y2000001D03*
G01*
X2500000Y750001D03*
G01*
X2999999Y750001D03*
G01*
X5000000Y750001D03*
G01*
X5499999Y750001D03*
G01*
X249999Y3250001D03*
G01*
X249999Y4750000D03*
G01*
X249999Y1749999D03*
G01*
X2500000Y249999D03*
G01*
X3500000Y249999D03*
G01*
X4500001Y249999D03*
G01*
X5499999Y249999D03*
G01*
X6499999Y249999D03*
G01*
X7500000Y249999D03*
G01*
X7749999Y1749999D03*
G01*
X7749999Y3250001D03*
G01*
X7749999Y4750000D03*
G01*
X7749999Y6250000D03*
G01*
X7500000Y7749999D03*
G01*
X249999Y6250000D03*
G01*
X1499999Y7749999D03*
G01*
X3500000Y7749999D03*
G01*
X4500001Y7749999D03*
G01*
X2500000Y7749999D03*
G01*
X5499999Y7749999D03*
G01*
X499998Y7749999D03*
G01*
X4500001Y6000000D03*
G01*
X6499999Y7749999D03*
G01*
X499998Y249999D03*
G01*
X1499999Y249999D03*
G01*
X750001Y6749999D03*
G01*
X750001Y5249999D03*
G01*
X999997Y4250436D03*
G01*
X750001Y3750000D03*
G01*
X499998Y2750438D03*
G01*
X750001Y2250000D03*
G01*
X499998Y1250442D03*
G01*
X750001Y750001D03*
G01*
X7250000Y1250000D03*
G01*
X7250000Y2749999D03*
G01*
X7250000Y4249999D03*
G01*
X7250000Y5750001D03*
G01*
X7250000Y7250000D03*
G01*
X7250000Y7250000D03*
G01*
X3500000Y2500000D03*
G01*
X3500000Y2999999D03*
G01*
X3500000Y3500000D03*
G01*
X3500000Y3999999D03*
G01*
X3500000Y4500001D03*
G01*
X3500000Y5000000D03*
G01*
X4500001Y2999999D03*
G01*
X4500001Y3500000D03*
G01*
X4500001Y3999999D03*
G01*
X3999991Y4761992D03*
G01*
X3999991Y3999999D03*
G01*
X3999991Y3494636D03*
G01*
X3999991Y3014858D03*
G01*
X3999991Y2800095D03*
G01*
X4300004Y2400002D03*
G01*
X4499990Y1999995D03*
G01*
X4500001Y1499999D03*
G01*
X4146506Y2553492D03*
G01*
X4499990Y2200015D03*
G01*
X3999991Y4473006D03*
G01*
X4182958Y4944958D03*
G01*
X4328774Y5090774D03*
M02*
