G04 Layer: TopSolderMaskLayer*
G04 EasyEDA v6.4.25, 2022-01-30T06:19:27+11:00*
G04 a67cddfb3fce44daa9051d46cbbcc19f,10*
G04 Gerber Generator version 0.2*
G04 Scale: 100 percent, Rotated: No, Reflected: No *
G04 Dimensions in millimeters *
G04 leading zeros omitted , absolute positions ,4 integer and 5 decimal *
%FSLAX45Y45*%
%MOMM*%

%ADD29C,2.1016*%
%ADD30C,1.8532*%
%ADD32R,1.3016X1.1016*%

%LPD*%
G36*
X2109977Y7164831D02*
G01*
X2109977Y7282179D01*
X2180081Y7282179D01*
X2180081Y7164831D01*
G37*
G36*
X1919986Y7164831D02*
G01*
X1919986Y7282179D01*
X1990090Y7282179D01*
X1990090Y7164831D01*
G37*
G36*
X2014981Y6917944D02*
G01*
X2014981Y7035037D01*
X2085086Y7035037D01*
X2085086Y6917944D01*
G37*
G36*
X2109977Y5664962D02*
G01*
X2109977Y5782055D01*
X2180081Y5782055D01*
X2180081Y5664962D01*
G37*
G36*
X1919986Y5664962D02*
G01*
X1919986Y5782055D01*
X1990090Y5782055D01*
X1990090Y5664962D01*
G37*
G36*
X2014981Y5417820D02*
G01*
X2014981Y5535168D01*
X2085086Y5535168D01*
X2085086Y5417820D01*
G37*
G36*
X2109977Y4164837D02*
G01*
X2109977Y4282186D01*
X2180081Y4282186D01*
X2180081Y4164837D01*
G37*
G36*
X1919986Y4164837D02*
G01*
X1919986Y4282186D01*
X1990090Y4282186D01*
X1990090Y4164837D01*
G37*
G36*
X2014981Y3917950D02*
G01*
X2014981Y4035044D01*
X2085086Y4035044D01*
X2085086Y3917950D01*
G37*
G36*
X2109977Y2664968D02*
G01*
X2109977Y2782062D01*
X2180081Y2782062D01*
X2180081Y2664968D01*
G37*
G36*
X1919986Y2664968D02*
G01*
X1919986Y2782062D01*
X1990090Y2782062D01*
X1990090Y2664968D01*
G37*
G36*
X2014981Y2417826D02*
G01*
X2014981Y2535173D01*
X2085086Y2535173D01*
X2085086Y2417826D01*
G37*
G36*
X2109977Y1164844D02*
G01*
X2109977Y1282192D01*
X2180081Y1282192D01*
X2180081Y1164844D01*
G37*
G36*
X1919986Y1164844D02*
G01*
X1919986Y1282192D01*
X1990090Y1282192D01*
X1990090Y1164844D01*
G37*
G36*
X2014981Y917955D02*
G01*
X2014981Y1035050D01*
X2085086Y1035050D01*
X2085086Y917955D01*
G37*
G36*
X5617972Y7059929D02*
G01*
X5617972Y7130034D01*
X5735065Y7130034D01*
X5735065Y7059929D01*
G37*
G36*
X5617972Y6869937D02*
G01*
X5617972Y6940042D01*
X5735065Y6940042D01*
X5735065Y6869937D01*
G37*
G36*
X5864859Y6964934D02*
G01*
X5864859Y7035037D01*
X5981954Y7035037D01*
X5981954Y6964934D01*
G37*
G36*
X5617972Y5609844D02*
G01*
X5617972Y5679947D01*
X5735065Y5679947D01*
X5735065Y5609844D01*
G37*
G36*
X5617972Y5419852D02*
G01*
X5617972Y5489955D01*
X5735065Y5489955D01*
X5735065Y5419852D01*
G37*
G36*
X5864859Y5514847D02*
G01*
X5864859Y5584952D01*
X5981954Y5584952D01*
X5981954Y5514847D01*
G37*
G36*
X5617972Y4109973D02*
G01*
X5617972Y4180078D01*
X5735065Y4180078D01*
X5735065Y4109973D01*
G37*
G36*
X5617972Y3919981D02*
G01*
X5617972Y3990086D01*
X5735065Y3990086D01*
X5735065Y3919981D01*
G37*
G36*
X5864859Y4014978D02*
G01*
X5864859Y4085081D01*
X5981954Y4085081D01*
X5981954Y4014978D01*
G37*
G36*
X5617972Y2609850D02*
G01*
X5617972Y2679954D01*
X5735065Y2679954D01*
X5735065Y2609850D01*
G37*
G36*
X5617972Y2419857D02*
G01*
X5617972Y2489962D01*
X5735065Y2489962D01*
X5735065Y2419857D01*
G37*
G36*
X5864859Y2514854D02*
G01*
X5864859Y2584957D01*
X5981954Y2584957D01*
X5981954Y2514854D01*
G37*
G36*
X5617972Y1109979D02*
G01*
X5617972Y1180084D01*
X5735065Y1180084D01*
X5735065Y1109979D01*
G37*
G36*
X5617972Y919987D02*
G01*
X5617972Y990092D01*
X5735065Y990092D01*
X5735065Y919987D01*
G37*
G36*
X5864859Y1014984D02*
G01*
X5864859Y1085087D01*
X5981954Y1085087D01*
X5981954Y1014984D01*
G37*
D29*
G01*
X999997Y7250455D03*
G01*
X999997Y6749567D03*
D30*
G01*
X3237991Y5523992D03*
G01*
X3237991Y5269992D03*
G01*
X3237991Y5015992D03*
G01*
X3237991Y4761992D03*
G01*
X3745991Y2221992D03*
G01*
X3999991Y2221992D03*
G01*
X4761991Y5015992D03*
G01*
X4761991Y5523992D03*
G01*
X4507991Y5269992D03*
G01*
X4507991Y4253992D03*
G01*
X4761991Y3745992D03*
G01*
X4761991Y3491992D03*
G01*
X3237991Y4507992D03*
G01*
X3237991Y4253992D03*
G01*
X3237991Y3999992D03*
G01*
X3237991Y3745992D03*
G01*
X3237991Y3491992D03*
G01*
X3237991Y3237992D03*
G01*
X3237991Y2983992D03*
G01*
X3237991Y2729992D03*
G01*
X3237991Y2475992D03*
G01*
X3237991Y2221992D03*
G01*
X4761991Y2475992D03*
G01*
X4761991Y2729992D03*
G01*
X4761991Y2983992D03*
G01*
X4761991Y3237992D03*
G01*
X4761991Y3999992D03*
G01*
X4761991Y4253992D03*
G01*
X4761991Y4507992D03*
G01*
X4507991Y4507992D03*
G01*
X4761991Y4761992D03*
G36*
X1654810Y6519926D02*
G01*
X1654810Y6610095D01*
X1744979Y6610095D01*
X1744979Y6519926D01*
G37*
G36*
X1654810Y6690105D02*
G01*
X1654810Y6780276D01*
X1744979Y6780276D01*
X1744979Y6690105D01*
G37*
G36*
X1634997Y6890004D02*
G01*
X1634997Y6999986D01*
X1765045Y6999986D01*
X1765045Y6890004D01*
G37*
G36*
X1634997Y7199884D02*
G01*
X1634997Y7310120D01*
X1765045Y7310120D01*
X1765045Y7199884D01*
G37*
G36*
X1634997Y5389879D02*
G01*
X1634997Y5500115D01*
X1765045Y5500115D01*
X1765045Y5389879D01*
G37*
G36*
X1634997Y5700013D02*
G01*
X1634997Y5809995D01*
X1765045Y5809995D01*
X1765045Y5700013D01*
G37*
G36*
X1634997Y3890010D02*
G01*
X1634997Y3999992D01*
X1765045Y3999992D01*
X1765045Y3890010D01*
G37*
G36*
X1634997Y4199889D02*
G01*
X1634997Y4310126D01*
X1765045Y4310126D01*
X1765045Y4199889D01*
G37*
G36*
X1634997Y2389886D02*
G01*
X1634997Y2500121D01*
X1765045Y2500121D01*
X1765045Y2389886D01*
G37*
G36*
X1634997Y2700020D02*
G01*
X1634997Y2810002D01*
X1765045Y2810002D01*
X1765045Y2700020D01*
G37*
G36*
X1634997Y890015D02*
G01*
X1634997Y999997D01*
X1765045Y999997D01*
X1765045Y890015D01*
G37*
G36*
X1634997Y1199895D02*
G01*
X1634997Y1310131D01*
X1765045Y1310131D01*
X1765045Y1199895D01*
G37*
G36*
X6234938Y6949947D02*
G01*
X6234938Y7060184D01*
X6364986Y7060184D01*
X6364986Y6949947D01*
G37*
G36*
X6234938Y6639813D02*
G01*
X6234938Y6750050D01*
X6364986Y6750050D01*
X6364986Y6639813D01*
G37*
G36*
X6234938Y5499862D02*
G01*
X6234938Y5610097D01*
X6364986Y5610097D01*
X6364986Y5499862D01*
G37*
G36*
X6234938Y5189981D02*
G01*
X6234938Y5299963D01*
X6364986Y5299963D01*
X6364986Y5189981D01*
G37*
G36*
X6234938Y3999992D02*
G01*
X6234938Y4109973D01*
X6364986Y4109973D01*
X6364986Y3999992D01*
G37*
D32*
G01*
X6300010Y3744998D03*
G36*
X6234938Y2499868D02*
G01*
X6234938Y2610104D01*
X6364986Y2610104D01*
X6364986Y2499868D01*
G37*
G36*
X6234938Y2189987D02*
G01*
X6234938Y2299970D01*
X6364986Y2299970D01*
X6364986Y2189987D01*
G37*
G36*
X6234938Y999997D02*
G01*
X6234938Y1109979D01*
X6364986Y1109979D01*
X6364986Y999997D01*
G37*
G01*
X6300002Y744999D03*
D29*
G01*
X999997Y5750432D03*
G01*
X999997Y5249545D03*
G01*
X999997Y4250436D03*
G01*
X999997Y3749547D03*
G01*
X999997Y2750438D03*
G01*
X999997Y2249551D03*
G01*
X999997Y1250442D03*
G01*
X999997Y749554D03*
G01*
X7000011Y6749542D03*
G01*
X7000011Y7250429D03*
G01*
X7000011Y5249545D03*
G01*
X7000011Y5750432D03*
G01*
X7000011Y3749547D03*
G01*
X7000011Y4250436D03*
G01*
X7000011Y2249551D03*
G01*
X7000011Y2750438D03*
G01*
X7000011Y749554D03*
G01*
X7000011Y1250442D03*
G36*
X1654810Y5019802D02*
G01*
X1654810Y5109971D01*
X1744979Y5109971D01*
X1744979Y5019802D01*
G37*
G36*
X1654810Y5189981D02*
G01*
X1654810Y5280152D01*
X1744979Y5280152D01*
X1744979Y5189981D01*
G37*
G36*
X1654810Y3519931D02*
G01*
X1654810Y3610102D01*
X1744979Y3610102D01*
X1744979Y3519931D01*
G37*
G36*
X1654810Y3690112D02*
G01*
X1654810Y3780281D01*
X1744979Y3780281D01*
X1744979Y3690112D01*
G37*
G36*
X1654810Y2019807D02*
G01*
X1654810Y2109978D01*
X1744979Y2109978D01*
X1744979Y2019807D01*
G37*
G36*
X1654810Y2189987D02*
G01*
X1654810Y2280157D01*
X1744979Y2280157D01*
X1744979Y2189987D01*
G37*
G36*
X1654810Y519937D02*
G01*
X1654810Y610107D01*
X1744979Y610107D01*
X1744979Y519937D01*
G37*
G36*
X1654810Y690118D02*
G01*
X1654810Y780287D01*
X1744979Y780287D01*
X1744979Y690118D01*
G37*
G36*
X6255004Y7340092D02*
G01*
X6255004Y7430262D01*
X6345174Y7430262D01*
X6345174Y7340092D01*
G37*
G36*
X6255004Y7169912D02*
G01*
X6255004Y7260081D01*
X6345174Y7260081D01*
X6345174Y7169912D01*
G37*
G36*
X6255004Y5890005D02*
G01*
X6255004Y5980176D01*
X6345174Y5980176D01*
X6345174Y5890005D01*
G37*
G36*
X6255004Y5719826D02*
G01*
X6255004Y5809995D01*
X6345174Y5809995D01*
X6345174Y5719826D01*
G37*
G36*
X6255004Y4389881D02*
G01*
X6255004Y4480052D01*
X6345174Y4480052D01*
X6345174Y4389881D01*
G37*
G36*
X6255004Y4219702D02*
G01*
X6255004Y4309871D01*
X6345174Y4309871D01*
X6345174Y4219702D01*
G37*
G36*
X6255004Y2890012D02*
G01*
X6255004Y2980181D01*
X6345174Y2980181D01*
X6345174Y2890012D01*
G37*
G36*
X6255004Y2719831D02*
G01*
X6255004Y2810002D01*
X6345174Y2810002D01*
X6345174Y2719831D01*
G37*
G36*
X6255004Y1389887D02*
G01*
X6255004Y1480057D01*
X6345174Y1480057D01*
X6345174Y1389887D01*
G37*
G36*
X6255004Y1219707D02*
G01*
X6255004Y1309878D01*
X6345174Y1309878D01*
X6345174Y1219707D01*
G37*
G36*
X1439926Y4712462D02*
G01*
X1439926Y4887721D01*
X1560068Y4887721D01*
X1560068Y4712462D01*
G37*
G36*
X1639823Y4712462D02*
G01*
X1639823Y4887721D01*
X1760220Y4887721D01*
X1760220Y4712462D01*
G37*
G36*
X2312415Y5639815D02*
G01*
X2312415Y5760212D01*
X2487675Y5760212D01*
X2487675Y5639815D01*
G37*
G36*
X2312415Y5439918D02*
G01*
X2312415Y5560060D01*
X2487675Y5560060D01*
X2487675Y5439918D01*
G37*
G36*
X1439926Y3212337D02*
G01*
X1439926Y3387597D01*
X1560068Y3387597D01*
X1560068Y3212337D01*
G37*
G36*
X1639823Y3212337D02*
G01*
X1639823Y3387597D01*
X1760220Y3387597D01*
X1760220Y3212337D01*
G37*
G36*
X2312415Y4139945D02*
G01*
X2312415Y4260087D01*
X2487675Y4260087D01*
X2487675Y4139945D01*
G37*
G36*
X2312415Y3939794D02*
G01*
X2312415Y4060189D01*
X2487675Y4060189D01*
X2487675Y3939794D01*
G37*
G36*
X1439926Y1712213D02*
G01*
X1439926Y1887728D01*
X1560068Y1887728D01*
X1560068Y1712213D01*
G37*
G36*
X1639823Y1712213D02*
G01*
X1639823Y1887728D01*
X1760220Y1887728D01*
X1760220Y1712213D01*
G37*
G36*
X2312415Y2639821D02*
G01*
X2312415Y2760218D01*
X2487675Y2760218D01*
X2487675Y2639821D01*
G37*
G36*
X2312415Y2439923D02*
G01*
X2312415Y2560065D01*
X2487675Y2560065D01*
X2487675Y2439923D01*
G37*
G36*
X1862328Y689863D02*
G01*
X1862328Y810260D01*
X2037588Y810260D01*
X2037588Y689863D01*
G37*
G36*
X1862328Y489965D02*
G01*
X1862328Y610107D01*
X2037588Y610107D01*
X2037588Y489965D01*
G37*
G36*
X2312415Y1139952D02*
G01*
X2312415Y1260094D01*
X2487675Y1260094D01*
X2487675Y1139952D01*
G37*
G36*
X2312415Y939800D02*
G01*
X2312415Y1060195D01*
X2487675Y1060195D01*
X2487675Y939800D01*
G37*
G36*
X5912358Y7539736D02*
G01*
X5912358Y7660131D01*
X6087618Y7660131D01*
X6087618Y7539736D01*
G37*
G36*
X5912358Y7339837D02*
G01*
X5912358Y7460234D01*
X6087618Y7460234D01*
X6087618Y7339837D01*
G37*
G36*
X5362447Y7039863D02*
G01*
X5362447Y7160260D01*
X5537708Y7160260D01*
X5537708Y7039863D01*
G37*
G36*
X5362447Y6839965D02*
G01*
X5362447Y6960108D01*
X5537708Y6960108D01*
X5537708Y6839965D01*
G37*
G36*
X5962395Y6089904D02*
G01*
X5962395Y6210045D01*
X6137656Y6210045D01*
X6137656Y6089904D01*
G37*
G36*
X5962395Y5889752D02*
G01*
X5962395Y6010147D01*
X6137656Y6010147D01*
X6137656Y5889752D01*
G37*
G36*
X5362447Y5589778D02*
G01*
X5362447Y5710173D01*
X5537708Y5710173D01*
X5537708Y5589778D01*
G37*
G36*
X5362447Y5389879D02*
G01*
X5362447Y5510276D01*
X5537708Y5510276D01*
X5537708Y5389879D01*
G37*
G36*
X5962395Y4589779D02*
G01*
X5962395Y4710176D01*
X6137656Y4710176D01*
X6137656Y4589779D01*
G37*
G36*
X5962395Y4389881D02*
G01*
X5962395Y4510278D01*
X6137656Y4510278D01*
X6137656Y4389881D01*
G37*
G36*
X5362447Y4089907D02*
G01*
X5362447Y4210050D01*
X5537708Y4210050D01*
X5537708Y4089907D01*
G37*
G36*
X5362447Y3889755D02*
G01*
X5362447Y4010152D01*
X5537708Y4010152D01*
X5537708Y3889755D01*
G37*
G36*
X5962395Y3089910D02*
G01*
X5962395Y3210052D01*
X6137656Y3210052D01*
X6137656Y3089910D01*
G37*
G36*
X5962395Y2889757D02*
G01*
X5962395Y3010154D01*
X6137656Y3010154D01*
X6137656Y2889757D01*
G37*
G36*
X5362447Y2589784D02*
G01*
X5362447Y2710179D01*
X5537708Y2710179D01*
X5537708Y2589784D01*
G37*
G36*
X5362447Y2389886D02*
G01*
X5362447Y2510281D01*
X5537708Y2510281D01*
X5537708Y2389886D01*
G37*
G36*
X5962395Y1589786D02*
G01*
X5962395Y1710181D01*
X6137656Y1710181D01*
X6137656Y1589786D01*
G37*
G36*
X5962395Y1389887D02*
G01*
X5962395Y1510284D01*
X6137656Y1510284D01*
X6137656Y1389887D01*
G37*
G36*
X5362447Y1089913D02*
G01*
X5362447Y1210055D01*
X5537708Y1210055D01*
X5537708Y1089913D01*
G37*
G36*
X5362447Y889762D02*
G01*
X5362447Y1010157D01*
X5537708Y1010157D01*
X5537708Y889762D01*
G37*
G01*
X3499993Y999997D03*
G01*
X4000118Y999997D03*
G01*
X4499990Y999997D03*
G36*
X1439926Y6212331D02*
G01*
X1439926Y6387592D01*
X1560068Y6387592D01*
X1560068Y6212331D01*
G37*
G36*
X1612392Y6239763D02*
G01*
X1612392Y6360160D01*
X1787652Y6360160D01*
X1787652Y6239763D01*
G37*
G36*
X2312415Y7139939D02*
G01*
X2312415Y7260081D01*
X2487675Y7260081D01*
X2487675Y7139939D01*
G37*
G36*
X2312415Y6939787D02*
G01*
X2312415Y7060184D01*
X2487675Y7060184D01*
X2487675Y6939787D01*
G37*
M02*
