G04 Layer: TopPasteMaskLayer*
G04 EasyEDA v6.4.25, 2022-01-30T06:19:27+11:00*
G04 a67cddfb3fce44daa9051d46cbbcc19f,10*
G04 Gerber Generator version 0.2*
G04 Scale: 100 percent, Rotated: No, Reflected: No *
G04 Dimensions in millimeters *
G04 leading zeros omitted , absolute positions ,4 integer and 5 decimal *
%FSLAX45Y45*%
%MOMM*%

%ADD16R,0.6000X1.0700*%
%ADD17R,1.0700X0.6000*%
%ADD18R,0.8000X0.8000*%
%ADD19R,1.2000X1.0000*%
%ADD20R,1.0000X1.5500*%
%ADD21R,1.5500X1.0000*%

%LPD*%
D16*
G01*
X2144996Y7223508D03*
G01*
X1955004Y7223508D03*
G01*
X2050000Y6976493D03*
G01*
X2144996Y5723506D03*
G01*
X1955004Y5723506D03*
G01*
X2050000Y5476491D03*
G01*
X2144996Y4223506D03*
G01*
X1955004Y4223506D03*
G01*
X2050000Y3976491D03*
G01*
X2144996Y2723507D03*
G01*
X1955004Y2723507D03*
G01*
X2050000Y2476492D03*
G01*
X2144996Y1223507D03*
G01*
X1955004Y1223507D03*
G01*
X2050000Y976492D03*
D17*
G01*
X5676493Y7094997D03*
G01*
X5676493Y6905005D03*
G01*
X5923508Y7000001D03*
G01*
X5676493Y5644995D03*
G01*
X5676493Y5455003D03*
G01*
X5923508Y5549999D03*
G01*
X5676493Y4144995D03*
G01*
X5676493Y3955003D03*
G01*
X5923508Y4049999D03*
G01*
X5676493Y2644995D03*
G01*
X5676493Y2455003D03*
G01*
X5923508Y2549999D03*
G01*
X5676493Y1144996D03*
G01*
X5676493Y955004D03*
G01*
X5923508Y1050000D03*
G36*
X1659999Y6604909D02*
G01*
X1739999Y6604909D01*
X1739999Y6524909D01*
X1659999Y6524909D01*
G37*
G36*
X1659999Y6775089D02*
G01*
X1739999Y6775089D01*
X1739999Y6695089D01*
X1659999Y6695089D01*
G37*
D19*
G01*
X1699988Y6945005D03*
G01*
X1699988Y7254986D03*
G01*
X1700011Y5445003D03*
G01*
X1700011Y5754984D03*
G01*
X1700009Y3945003D03*
G01*
X1700009Y4254985D03*
G01*
X1700004Y2445004D03*
G01*
X1700004Y2754985D03*
G01*
X1699996Y945006D03*
G01*
X1699996Y1254988D03*
G01*
X6299989Y7004979D03*
G01*
X6299989Y6694998D03*
G01*
X6300012Y5554979D03*
G01*
X6300012Y5244998D03*
G01*
X6300010Y4054980D03*
G01*
X6300010Y3744998D03*
G01*
X6300005Y2554980D03*
G01*
X6300005Y2244999D03*
G01*
X6300002Y1054981D03*
G01*
X6300002Y744999D03*
G36*
X1659999Y5104909D02*
G01*
X1739999Y5104909D01*
X1739999Y5024909D01*
X1659999Y5024909D01*
G37*
G36*
X1659999Y5275089D02*
G01*
X1739999Y5275089D01*
X1739999Y5195089D01*
X1659999Y5195089D01*
G37*
G36*
X1659999Y3604910D02*
G01*
X1739999Y3604910D01*
X1739999Y3524910D01*
X1659999Y3524910D01*
G37*
G36*
X1659999Y3775090D02*
G01*
X1739999Y3775090D01*
X1739999Y3695090D01*
X1659999Y3695090D01*
G37*
G36*
X1659999Y2104910D02*
G01*
X1739999Y2104910D01*
X1739999Y2024910D01*
X1659999Y2024910D01*
G37*
G36*
X1659999Y2275090D02*
G01*
X1739999Y2275090D01*
X1739999Y2195090D01*
X1659999Y2195090D01*
G37*
G36*
X1659999Y604911D02*
G01*
X1739999Y604911D01*
X1739999Y524911D01*
X1659999Y524911D01*
G37*
G36*
X1659999Y775091D02*
G01*
X1739999Y775091D01*
X1739999Y695091D01*
X1659999Y695091D01*
G37*
D18*
G01*
X6299987Y7385100D03*
G01*
X6299987Y7214920D03*
G01*
X6299989Y5935101D03*
G01*
X6299989Y5764921D03*
G01*
X6299992Y4435099D03*
G01*
X6299992Y4264919D03*
G01*
X6299995Y2935099D03*
G01*
X6299995Y2764919D03*
G01*
X6300000Y1435100D03*
G01*
X6300000Y1264920D03*
D20*
G01*
X1500004Y4800010D03*
G01*
X1700004Y4800010D03*
D21*
G01*
X2400005Y5700008D03*
G01*
X2400005Y5500009D03*
D20*
G01*
X1500004Y3300008D03*
G01*
X1700004Y3300008D03*
D21*
G01*
X2400005Y4200006D03*
G01*
X2400005Y4000007D03*
D20*
G01*
X1500004Y1800004D03*
G01*
X1700004Y1800004D03*
D21*
G01*
X2400005Y2700004D03*
G01*
X2400005Y2500005D03*
G01*
X1950001Y749995D03*
G01*
X1950001Y549996D03*
G01*
X2400005Y1200002D03*
G01*
X2400005Y1000003D03*
G01*
X5999988Y7600010D03*
G01*
X5999988Y7400010D03*
G01*
X5449989Y7099988D03*
G01*
X5449989Y6899988D03*
G01*
X6049990Y6150010D03*
G01*
X6049990Y5950010D03*
G01*
X5449989Y5649988D03*
G01*
X5449989Y5449989D03*
G01*
X6049992Y4650011D03*
G01*
X6049992Y4450011D03*
G01*
X5449989Y4149991D03*
G01*
X5449989Y3949992D03*
G01*
X6049995Y3150008D03*
G01*
X6049995Y2950009D03*
G01*
X5449989Y2649994D03*
G01*
X5449989Y2449995D03*
G01*
X6050000Y1650009D03*
G01*
X6050000Y1450009D03*
G01*
X5449989Y1149997D03*
G01*
X5449989Y949998D03*
D20*
G01*
X1499999Y6300000D03*
D21*
G01*
X1699999Y6300000D03*
G01*
X2400000Y7200000D03*
G01*
X2400000Y7000001D03*
M02*
