G04 Layer: BottomSolderMaskLayer*
G04 EasyEDA v6.4.25, 2022-01-30T06:19:27+11:00*
G04 a67cddfb3fce44daa9051d46cbbcc19f,10*
G04 Gerber Generator version 0.2*
G04 Scale: 100 percent, Rotated: No, Reflected: No *
G04 Dimensions in millimeters *
G04 leading zeros omitted , absolute positions ,4 integer and 5 decimal *
%FSLAX45Y45*%
%MOMM*%

%ADD29C,2.1016*%
%ADD30C,1.8532*%

%LPD*%
D29*
G01*
X999997Y7250455D03*
G01*
X999997Y6749567D03*
D30*
G01*
X3237991Y5523992D03*
G01*
X3237991Y5269992D03*
G01*
X3237991Y5015992D03*
G01*
X3237991Y4761992D03*
G01*
X3745991Y2221992D03*
G01*
X3999991Y2221992D03*
G01*
X4761991Y5015992D03*
G01*
X4761991Y5523992D03*
G01*
X4507991Y5269992D03*
G01*
X4507991Y4253992D03*
G01*
X4761991Y3745992D03*
G01*
X4761991Y3491992D03*
G01*
X3237991Y4507992D03*
G01*
X3237991Y4253992D03*
G01*
X3237991Y3999992D03*
G01*
X3237991Y3745992D03*
G01*
X3237991Y3491992D03*
G01*
X3237991Y3237992D03*
G01*
X3237991Y2983992D03*
G01*
X3237991Y2729992D03*
G01*
X3237991Y2475992D03*
G01*
X3237991Y2221992D03*
G01*
X4761991Y2475992D03*
G01*
X4761991Y2729992D03*
G01*
X4761991Y2983992D03*
G01*
X4761991Y3237992D03*
G01*
X4761991Y3999992D03*
G01*
X4761991Y4253992D03*
G01*
X4761991Y4507992D03*
G01*
X4507991Y4507992D03*
G01*
X4761991Y4761992D03*
D29*
G01*
X999997Y5750432D03*
G01*
X999997Y5249545D03*
G01*
X999997Y4250436D03*
G01*
X999997Y3749547D03*
G01*
X999997Y2750438D03*
G01*
X999997Y2249551D03*
G01*
X999997Y1250442D03*
G01*
X999997Y749554D03*
G01*
X7000011Y6749542D03*
G01*
X7000011Y7250429D03*
G01*
X7000011Y5249545D03*
G01*
X7000011Y5750432D03*
G01*
X7000011Y3749547D03*
G01*
X7000011Y4250436D03*
G01*
X7000011Y2249551D03*
G01*
X7000011Y2750438D03*
G01*
X7000011Y749554D03*
G01*
X7000011Y1250442D03*
G01*
X3499993Y999997D03*
G01*
X4000118Y999997D03*
G01*
X4499990Y999997D03*
M02*
