M48
METRIC,LZ,000.000
;FILE_FORMAT=3:3
;TYPE=PLATED
;Layer: Drill PTH
;EasyEDA v6.4.25, 2022-01-30T06:19:27+11:00
;a67cddfb3fce44daa9051d46cbbcc19f,10
;Gerber Generator version 0.2
;Holesize 1 = 0.305 mm
T01C0.305
;Holesize 2 = 0.901 mm
T02C0.901
;Holesize 3 = 1.200 mm
T03C1.200
;Holesize 4 = 1.301 mm
T04C1.301
%
G05
G90
T01
X035000Y070000
X040000Y070000
X045000Y070000
X035000Y065000
X040000Y065000
X045000Y065000
X035000Y060000
X040000Y060000
X045000Y060000
X025000Y065000
X055000Y065000
X055000Y050000
X025000Y050000
X025000Y035000
X055000Y035000
X025000Y020000
X055000Y020000
X030000Y015000
X035000Y015000
X040000Y015000
X055000Y015000
X025000Y015000
X030000Y020000
X035000Y020000
X040000Y020000
X025000Y007500
X030000Y007500
X050000Y007500
X055000Y007500
X002500Y032500
X002500Y047500
X002500Y017500
X025000Y002500
X035000Y002500
X045000Y002500
X055000Y002500
X065000Y002500
X075000Y002500
X077500Y017500
X077500Y032500
X077500Y047500
X077500Y062500
X075000Y077500
X002500Y062500
X015000Y077500
X035000Y077500
X045000Y077500
X025000Y077500
X055000Y077500
X005000Y077500
X045000Y060000
X065000Y077500
X005000Y002500
X015000Y002500
X007500Y067500
X007500Y052500
X010000Y042504
X007500Y037500
X005000Y027504
X007500Y022500
X005000Y012504
X007500Y007500
X072500Y012500
X072500Y027500
X072500Y042500
X072500Y057500
X072500Y072500
X072500Y072500
X035000Y025000
X035000Y030000
X035000Y035000
X035000Y040000
X035000Y045000
X035000Y050000
X045000Y030000
X045000Y035000
X045000Y040000
X040000Y047620
X040000Y040000
X040000Y034946
X040000Y030149
X040000Y028001
X043000Y024000
X045000Y020000
X045000Y015000
X041465Y025535
X045000Y022000
X040000Y044730
X041830Y049450
X043288Y050908
T02
X032380Y055240
X032380Y052700
X032380Y050160
X032380Y047620
X037460Y022220
X040000Y022220
X047620Y050160
X047620Y055240
X045080Y052700
X045080Y042540
X047620Y037460
X047620Y034920
X032380Y045080
X032380Y042540
X032380Y040000
X032380Y037460
X032380Y034920
X032380Y032380
X032380Y029840
X032380Y027300
X032380Y024760
X032380Y022220
X047620Y024760
X047620Y027300
X047620Y029840
X047620Y032380
X047620Y040000
X047620Y042540
X047620Y045080
X045080Y045080
X047620Y047620
T03
X010000Y072504
X010000Y067496
X010000Y057504
X010000Y052496
X010000Y042504
X010000Y037496
X010000Y027504
X010000Y022496
X010000Y012504
X010000Y007496
X070000Y067496
X070000Y072504
X070000Y052496
X070000Y057504
X070000Y037496
X070000Y042504
X070000Y022496
X070000Y027504
X070000Y007496
X070000Y012504
T04
X035000Y010000
X040001Y010000
X045000Y010000
M30
